<svg xmlns="http://www.w3.org/2000/svg" xmlns:xlink="http://www.w3.org/1999/xlink" width="97.527" height="97.527" viewBox="0 0 97.527 97.527">
  <defs>
    <filter id="Trazado_1000602" x="0" y="0" width="97.527" height="97.527" filterUnits="userSpaceOnUse">
      <feOffset dy="3" input="SourceAlpha"/>
      <feGaussianBlur stdDeviation="3" result="blur"/>
      <feFlood flood-opacity="0.161"/>
      <feComposite operator="in" in2="blur"/>
      <feComposite in="SourceGraphic"/>
    </filter>
  </defs>
  <g id="Grupo_1137678" data-name="Grupo 1137678" transform="translate(-752.237 -7873.113)">
    <g transform="matrix(1, 0, 0, 1, 752.24, 7873.11)" filter="url(#Trazado_1000602)">
      <g id="Trazado_1000602-2" data-name="Trazado 1000602" transform="translate(9 6)" fill="#bacbec" opacity="0.859">
        <path d="M 39.76345825195312 78.02735137939453 C 34.59725952148438 78.02735137939453 29.58639144897461 77.01588439941406 24.87004661560059 75.02104187011719 C 20.31384658813477 73.09392547607422 16.22163581848145 70.33478546142578 12.70710277557373 66.82025146484375 C 9.192569732666016 63.30571746826172 6.433424949645996 59.21350479125977 4.506313800811768 54.65730667114258 C 2.51146936416626 49.94095993041992 1.50000274181366 44.93009567260742 1.50000274181366 39.7639045715332 C 1.50000274181366 34.59724807739258 2.51146936416626 29.58638381958008 4.506313800811768 24.87003898620605 C 6.433424949645996 20.31383895874023 9.192569732666016 16.22163772583008 12.70710277557373 12.70710563659668 C 16.22163581848145 9.192571640014648 20.31384658813477 6.433427333831787 24.87004661560059 4.506316184997559 C 29.58639144897461 2.51147198677063 34.59725952148438 1.50000524520874 39.76345825195312 1.50000524520874 C 44.92965698242188 1.50000524520874 49.94052505493164 2.51147198677063 54.65686798095703 4.506316184997559 C 59.21306991577148 6.433427333831787 63.30527877807617 9.192571640014648 66.81981658935547 12.70710563659668 C 70.3343505859375 16.22163772583008 73.09349060058594 20.31383895874023 75.02059936523438 24.87003898620605 C 77.01544952392578 29.58638381958008 78.02691650390625 34.59724807739258 78.02691650390625 39.7634391784668 C 78.02691650390625 44.93009567260742 77.01544952392578 49.94095993041992 75.02059936523438 54.65730667114258 C 73.09349060058594 59.21350479125977 70.3343505859375 63.30571746826172 66.81981658935547 66.82025146484375 C 63.30527877807617 70.33478546142578 59.21306991577148 73.09392547607422 54.65686798095703 75.02104187011719 C 49.94052505493164 77.01588439941406 44.92965698242188 78.02735137939453 39.76345825195312 78.02735137939453 Z" stroke="none"/>
        <path d="M 39.76345825195312 3 C 34.79909515380859 3 29.98483276367188 3.971595764160156 25.45438385009766 5.887825012207031 C 21.07696914672852 7.739311218261719 17.14501953125 10.39049530029297 13.76776885986328 13.76776123046875 C 10.39051055908203 17.14502334594727 7.739311218261719 21.07695770263672 5.8878173828125 25.45437240600586 C 3.971595764160156 29.98482131958008 2.999992370605469 34.7990837097168 2.999992370605469 39.76389694213867 C 2.999992370605469 44.7282600402832 3.971595764160156 49.54252243041992 5.8878173828125 54.07297134399414 C 7.739311218261719 58.45038604736328 10.39051055908203 62.38232421875 13.76776885986328 65.75958251953125 C 17.14501953125 69.13684844970703 21.07696914672852 71.78803253173828 25.45438385009766 73.63951873779297 C 29.98483276367188 75.55574798583984 34.79909515380859 76.52734375 39.76345825195312 76.52734375 C 44.72782135009766 76.52734375 49.54208374023438 75.55574798583984 54.07253265380859 73.63951873779297 C 58.44994354248047 71.78803253173828 62.38189697265625 69.13684844970703 65.75914764404297 65.75958251953125 C 69.13640594482422 62.38232421875 71.78760528564453 58.45038604736328 73.63909912109375 54.07297134399414 C 75.55532073974609 49.54252243041992 76.52692413330078 44.7282600402832 76.52692413330078 39.76344680786133 C 76.52692413330078 34.7990837097168 75.55532073974609 29.98482131958008 73.63909912109375 25.45437240600586 C 71.78760528564453 21.07695770263672 69.13640594482422 17.14502334594727 65.75914764404297 13.76776123046875 C 62.38189697265625 10.39049530029297 58.44994354248047 7.739311218261719 54.07253265380859 5.887825012207031 C 49.54208374023438 3.971595764160156 44.72782135009766 3 39.76345825195312 3 M 39.76345825195312 0 C 61.72420883178711 0 79.52692413330078 17.80269622802734 79.52692413330078 39.76344680786133 L 79.52692413330078 39.76389694213867 C 79.52692413330078 61.72464752197266 61.72420883178711 79.52734375 39.76345825195312 79.52734375 C 17.80270767211914 79.52734375 -7.62939453125e-06 61.72464752197266 -7.62939453125e-06 39.76389694213867 L -7.62939453125e-06 39.76344680786133 C -7.62939453125e-06 17.80269622802734 17.80270767211914 0 39.76345825195312 0 Z" stroke="none" fill="#fff"/>
      </g>
    </g>
    <text id="_01" data-name="01" transform="translate(780.802 7933)" fill="#e5f0fc" font-size="38" font-family="Roboto-Black, Roboto" font-weight="800"><tspan x="0" y="0">01</tspan></text>
  </g>
</svg>
