<svg xmlns="http://www.w3.org/2000/svg" xmlns:xlink="http://www.w3.org/1999/xlink" width="1328.051" height="677.106" viewBox="0 0 1328.051 677.106">
  <defs>
    <linearGradient id="linear-gradient" x1="0.5" x2="0.5" y2="1" gradientUnits="objectBoundingBox">
      <stop offset="0" stop-color="#f7f7f7"/>
      <stop offset="1" stop-color="#d8d8d8" stop-opacity="0"/>
    </linearGradient>
    <linearGradient id="linear-gradient-2" x1="0.5" x2="0.5" y2="1" gradientUnits="objectBoundingBox">
      <stop offset="0" stop-color="#fff"/>
      <stop offset="1" stop-color="#fff" stop-opacity="0"/>
    </linearGradient>
    <clipPath id="clip-path">
      <rect id="Rectángulo_414970" data-name="Rectángulo 414970" width="282.051" height="129" transform="translate(0)" fill="#f5eec2" stroke="#707070" stroke-width="1"/>
    </clipPath>
    <clipPath id="clip-path-2">
      <rect id="Rectángulo_414971" data-name="Rectángulo 414971" width="282.051" height="129" transform="translate(0)" fill="#fed8cc" stroke="#707070" stroke-width="1"/>
    </clipPath>
    <clipPath id="clip-path-3">
      <rect id="Rectángulo_414972" data-name="Rectángulo 414972" width="904.161" height="495.221" fill="none"/>
    </clipPath>
  </defs>
  <g id="Grupo_1137738" data-name="Grupo 1137738" transform="translate(-115.505 -1879.638)">
    <g id="Grupo_1137374" data-name="Grupo 1137374" transform="translate(-20.47 14)">
      <g id="Grupo_1102641" data-name="Grupo 1102641" transform="translate(0.025 364.924)">
        <rect id="Rectángulo_33858" data-name="Rectángulo 33858" width="1328" height="677.106" transform="translate(136 1500.714)" fill="url(#linear-gradient)"/>
        <rect id="Rectángulo_326955" data-name="Rectángulo 326955" width="1328" height="83" transform="translate(136 1500.714)" fill="url(#linear-gradient-2)"/>
      </g>
      <g id="Grupo_1137370" data-name="Grupo 1137370" transform="translate(135.975 2486.242) rotate(-90)" opacity="0.25" clip-path="url(#clip-path)">
        <g id="Grupo_1137369" data-name="Grupo 1137369" transform="translate(6.559 -148.677)">
          <path id="Sustracción_29" data-name="Sustracción 29" d="M136.653,0a137.662,137.662,0,0,0-27.54,2.776A135.9,135.9,0,0,0,60.249,23.338a137.051,137.051,0,0,0-49.51,60.123,135.968,135.968,0,0,0-7.963,25.651,137.987,137.987,0,0,0,0,55.081,135.905,135.905,0,0,0,20.562,48.863,137.051,137.051,0,0,0,60.123,49.51,135.969,135.969,0,0,0,25.651,7.963,137.986,137.986,0,0,0,55.081,0,135.906,135.906,0,0,0,48.863-20.562,137.052,137.052,0,0,0,49.51-60.123,135.971,135.971,0,0,0,7.963-25.651,137.986,137.986,0,0,0,0-55.081,135.9,135.9,0,0,0-20.562-48.863,137.051,137.051,0,0,0-60.123-49.51,135.97,135.97,0,0,0-25.651-7.963A137.662,137.662,0,0,0,136.653,0Zm-.509,208.453A71.817,71.817,0,0,1,121.776,207a70.9,70.9,0,0,1-25.492-10.727,71.5,71.5,0,0,1-25.829-31.366A70.93,70.93,0,0,1,66.3,151.529a71.987,71.987,0,0,1,0-28.735A70.9,70.9,0,0,1,77.028,97.3a71.5,71.5,0,0,1,31.366-25.829,70.931,70.931,0,0,1,13.382-4.154,71.987,71.987,0,0,1,28.735,0A70.9,70.9,0,0,1,176,78.046a71.5,71.5,0,0,1,25.829,31.366,70.929,70.929,0,0,1,4.154,13.382,71.986,71.986,0,0,1,0,28.735,70.9,70.9,0,0,1-10.727,25.492,71.5,71.5,0,0,1-31.366,25.829A70.928,70.928,0,0,1,150.511,207,71.816,71.816,0,0,1,136.144,208.453Z" fill="#f5eec2"/>
        </g>
      </g>
      <g id="Grupo_1137373" data-name="Grupo 1137373" transform="translate(1463.975 2038.146) rotate(90)" opacity="0.25" clip-path="url(#clip-path-2)">
        <g id="Grupo_1137372" data-name="Grupo 1137372" transform="translate(6.559 -148.677)">
          <path id="Sustracción_30" data-name="Sustracción 30" d="M136.653,0a137.662,137.662,0,0,0-27.54,2.776A135.9,135.9,0,0,0,60.249,23.338a137.051,137.051,0,0,0-49.51,60.123,135.968,135.968,0,0,0-7.963,25.651,137.987,137.987,0,0,0,0,55.081,135.905,135.905,0,0,0,20.562,48.863,137.051,137.051,0,0,0,60.123,49.51,135.969,135.969,0,0,0,25.651,7.963,137.986,137.986,0,0,0,55.081,0,135.906,135.906,0,0,0,48.863-20.562,137.052,137.052,0,0,0,49.51-60.123,135.971,135.971,0,0,0,7.963-25.651,137.986,137.986,0,0,0,0-55.081,135.9,135.9,0,0,0-20.562-48.863,137.051,137.051,0,0,0-60.123-49.51,135.97,135.97,0,0,0-25.651-7.963A137.662,137.662,0,0,0,136.653,0Zm-.509,208.453A71.817,71.817,0,0,1,121.776,207a70.9,70.9,0,0,1-25.492-10.727,71.5,71.5,0,0,1-25.829-31.366A70.93,70.93,0,0,1,66.3,151.529a71.987,71.987,0,0,1,0-28.735A70.9,70.9,0,0,1,77.028,97.3a71.5,71.5,0,0,1,31.366-25.829,70.931,70.931,0,0,1,13.382-4.154,71.987,71.987,0,0,1,28.735,0A70.9,70.9,0,0,1,176,78.046a71.5,71.5,0,0,1,25.829,31.366,70.929,70.929,0,0,1,4.154,13.382,71.986,71.986,0,0,1,0,28.735,70.9,70.9,0,0,1-10.727,25.492,71.5,71.5,0,0,1-31.366,25.829A70.928,70.928,0,0,1,150.511,207,71.816,71.816,0,0,1,136.144,208.453Z" fill="#fed8cc"/>
        </g>
      </g>
    </g>
    <g id="Grupo_1137379" data-name="Grupo 1137379" transform="translate(1025.056 2415.057)">
      <text id="_" data-name="+" transform="translate(22.112 39.912)" fill="#fff" font-size="29" font-family="Roboto-Black, Roboto" font-weight="800"><tspan x="0" y="0">+</tspan></text>
    </g>
    <g id="Grupo_1137380" data-name="Grupo 1137380" transform="translate(327.45 1956.724)" clip-path="url(#clip-path-3)">
      <path id="Trazado_1000487" data-name="Trazado 1000487" d="M82.044,107.627c1.793,0,2.015.649,3.553,0s6.077-3.644,7.616-4.056,2.524.134.257,1.4-6.814,3.992-6,3.785a57.166,57.166,0,0,0,6.369-2.726c3.257-1.536,2.962-.853,3.8-2.489s1.284-2.492,1.284-2.492,5.161,5.287,5.638,5.493.662-.036.917-.684.8-1.571,1.539-1.259.106,1.566.544,1.738,1.171-.032,2.527-.478.659-1.427.659-1.427-.145-.039,1.429-.176,6.516,1.672,7.981,2.251,5.9,1.058,7.143,1.465,1.715-.714,3.441.206,3,2.146,1.718,2.793-4.5,1.128-2.855,1.537a25.351,25.351,0,0,0,6.518.853c2.379-.072,6.66-.953,7.977-.953s2.124.817,3.37,2.9,2.23,2.9,2.708,3.067-.477-.987-.222-2.012a8,8,0,0,0-.547-3.714c-.29-.684,0-1.024-.586-2.016s-1.536-.818.222-1.667,2.964-2.113,5.088-1.843,2.708,2.969,4.539,3.169,2.163.919,5.308,1.16,1.832.037,5.347.274,2.234-.38,2.965-2.181,1.539-2.152,2.379-2.079,3.8.475,3.8.853-1.243,2.313-.621,3.27a14.667,14.667,0,0,0,3.155,2.523s-.551-2.181-.551-2.421-.184-1.94.184-2.25,2.453.171,3.769-2.388-.882-2.422-.882-2.422-.806.039-.4-1.02,2.745-1.7,2.745-1.7.149.476-.149-.38-1.824-.679-3.476-.782S179.468,100.4,179.17,99a40.537,40.537,0,0,1-.4-6.34c0-2.012,1.614-1.3,1.9-2.422A29.2,29.2,0,0,0,180.2,82.5c-.406-1.122.582-3.547.808-5.146s1.863-.89,1.863-.89c-.294-.547.473-2.079,2.671-2.726s6.373.032,6.373.032-.37.035-1.394,1.365-.363,3.685-1.9,5.352-5.453,1.126-5.453,1.126,1.206,2.763.694,3.645a10.922,10.922,0,0,0-.84,2.7s3.442.953,3.624,3.136,1.9,2.555,2.305,4.567-1.684,3.683-1.246,3.989.586.442,1.835.509,2.926.306,2.926.306a2.1,2.1,0,0,0-.074,2.115c.625,1.09.149,1.774.219,2.933s.769,2.146,1.059,1.945a17.546,17.546,0,0,0,1.945-4.5c.29-1.333.512-2.047,1.094-2.047s2.567,1.81,2.785,2.457.366,1.534-.73,3.3-.989,2.591-.036,3.273a13.872,13.872,0,0,0,2.708,1.3c1.718.818,1.394.747,2.453.441s-.441-3-.332-3.067,2.53-.343,1.983-1.705-1.1-2.044.032-2.728,1.941-1.226,1.941-1.226a13.234,13.234,0,0,1-1.426-3.207c-.8-2.285.692-1.665,3.847-1.431s3.289,1.331,4.976,2.183.622,1.157,1.169,2.523-1.39,1.57-1.39,1.57-1.281.235-.989,1.293a18.982,18.982,0,0,0,1.8,3.957c.913,1.638-.255,2.759-1.687,4.091a6.88,6.88,0,0,1-4.793,1.738c-1.686.031-2.417.715-2.523.237a1.532,1.532,0,0,0-1.832-.715c-.921.2-3.006,1.025-2.272,1.294s2.671.206,1.867,1.707-1.5,1.5-3.114,1.329-3.11-.171-4.139-.241-6.077-.374-6.077-.374a34.646,34.646,0,0,0,6.119,2.933,13.19,13.19,0,0,0,5.565.34s-1.1,2.046-2.421,4.227-2.561,1.23-3.657,1.364-1.76,1.025-3.808,1.294-6.335-.579-5.678-.269.953.848,2.124,1.021a4.991,4.991,0,0,1,2.929,1.228c1.024.851-.659,1.059-2.011,1.294a2.855,2.855,0,0,0-2.344,1.328c-.625.857-2.931,4.158-3.663,5.182a11.282,11.282,0,0,0-1.682,4.738c-.3,2.016-2.012,4.432-1.243,4.945s3.657.579,4.867,1.331,2.565,4.431,3.476,5.829,1.649,2.457,2.671,1.365,3.043-.818,4.945-.137a29.071,29.071,0,0,1,7,4.564c1.206,1.2,3.327.992,5.706,1.333s2.649,1.236,2.649,1.236,2.479.128,1.455,1.186-1.32.032-.3,1.805a8.02,8.02,0,0,1,.7,5.352c-.295,1.195,3.28.592,4.784,1.478s1.583,4.491,2.356,4.046,2.047-1.23,2.2-2.183a18.648,18.648,0,0,0-.184-3.853c-.149-1.638-.551-4.638-1.355-5.829s1.452-1.669,1.085-2.181-.281-1.532,1.258-1.945,1.649-.032,2.489-.681.988-3.679,1.133-4.77a11.934,11.934,0,0,0-.618-4.33,28.308,28.308,0,0,0-2.414-4.33c-.557-.613-1.246-.785.257-2.692s.618-1.5.4-2.08-.547-2.011-.839-3.305.621-2.73.07-4.572-1.133-1.429-1.023-1.841,3.586-.306,6.151-.032a14.6,14.6,0,0,0,4.316-.274,8.907,8.907,0,0,1,3.48,1.64c1.426.918,1.977.681,2.711,1.805s1.133,1.739,2.629,1.672a8.03,8.03,0,0,1,3.12.646s-1.065.614-.879,2.626a30.333,30.333,0,0,1-.186,4.3c.035.816.443.852,1.133.954s2.568,1.771,4.5,2.453,2.453.477,3.074-1.091.772-1.433,1.541-1.531,1.024.169,1.352-.172-.586-1.023-.367-2.112a7.636,7.636,0,0,1,2.163-3.344c.875-.818,1.5.82,2.269,2.32s3.441,6.375,4.21,7.974,1.757,1.706.84,3.211-1.355,2.141.074,2.825,2.71,1.877,2.6,3-.409,1.16.071,1.47,2.2-.617,3.441-.07a12.068,12.068,0,0,1,3.624,1.943c.875.887.808,1.193-.441,1.633a22.057,22.057,0,0,0-3.112,1.262c-.625.376-1.61,1.1-1.574,1.676s-.257,1.531.733.78a13.232,13.232,0,0,1,3.769-1.84c1.171-.339.294-.036,1.355-.172s2.086.513,3.555.921,1.058,1.331.692,2.184a2.6,2.6,0,0,0-.11,2.626c.59.953-.253,1.805-1.539,2.964s-2.23,1.331-4.316,1.6-3.08,1.532-4.542,2.894-2.194,1.024-4.319,1.126-1.281-1.055-1.938-.817a8.947,8.947,0,0,1-2.855,1.1c-1.359.134-5.936.2-7.694.714s-1.2,1.7-1.645,2.691-1.137.579-2.453,1.024-2.894,2.388-4.429,5.047a16.548,16.548,0,0,1-3.624,4.294,11.506,11.506,0,0,0,3.659-2.73c1.063-1.294,5.492-4.361,6.847-5.314s4.281-2.353,4.977-2.15,2.421,1.536,2.421,2.218-.516,1.227-1.757,2.386-2.894,0-2.785.476a3.213,3.213,0,0,0,1.941,1.806c.953.238.912,1.4.912,1.98s-.547,1.329,1.647,3.171a6.686,6.686,0,0,0,5.351,1.874c1.608-.1.765.547,1.426.48s.8-1.329,1.023-2.353a4.257,4.257,0,0,1,1.171-2.421c.59-.444,1.024-1.262,1.21.309s-.659,3.715-1.506,4.191-.653,1.091-.653,1.567-.953.512-3.225,1.774-3,1.568-3.4,1.4-1.245.206-2.339,1.193-2.271,2.321-3.075,2.282-1.5-.372-.406-1.5,1.469-2.691,2.563-3.238a4.44,4.44,0,0,1,2.527-.477c.914,0,.477-.547,1.208-1.087s-.551-.38-1.8-.583-.29-1.3-.29-1.3l-1.285.683a16.133,16.133,0,0,1-2.453,1.094c-.508.065-.4.406-.547.612a7.5,7.5,0,0,1-1.976.341s-.953,1.941-2.383,2.215-.433.171-1.464.612-.837-.508-1.059-.238a6.7,6.7,0,0,1-1.536,1.364c-1.135.856-1.8,1.128-2.6,4.23a7.551,7.551,0,0,0,.11,4.707c-.036.476-1.43-.309-1.828.063a6.517,6.517,0,0,1-2.53,1.877c-1.208.341-3.586.956-4.136,1.535s-.586,1.4-.843,2.589a26,26,0,0,1-1.684,3.992,1.926,1.926,0,0,0-.661-1.945c-.988-.817-.837-1.567-.837-1.567a5.087,5.087,0,0,0,.145,2.282c.371,1.159,1.1,2.321.769,3.579s-.956,2.833-1.718,3.274.18-.853.18-1.874-.511-1.091-.843-1.6-.331-1.809.255-3.551-.547-.679-1.208.48-1.13,3.305-.109,4.705-.657,1.259.037,3.27-.839,3-.553,3.31,1.1-.136,1.468.85-.731.547-1.1.821-.186.647.036,1.193.659.2.477.374a3.969,3.969,0,0,1-1.649,1.159c-.95.306-1.027-.173-1.612.512s-1.02,1.294-1.645,2.077-1.06.515-1.72,1.059-.914.988-1.725,1.671a20.03,20.03,0,0,0-3.622,3.067c-.988,1.329-.733,1.671-1.21,3.821s1.21,5.9,2.273,9.444,1.5,2.556,1.351,3.679a6.069,6.069,0,0,1-1.394,3.274c-.762.786-1.2-.547-2.263-1.333s-.222-1.325-1.245-2.961a5.751,5.751,0,0,1-1.063-3.412,15.07,15.07,0,0,0-.839-4.191c-.551-1.3-1.726-2.935-3.48-2.285s-1.318.341-2.269.063-3.477-1.29-4.761-.61-5.34-.207-6.187,0-1.468.277-1.468.856-.361.675,1.139,1.087,1.281.853,1.175,1.5-1.214-.341-1.8-.579-1.133.477-2.157.477-1.21-.989-2.127-1.124a7.765,7.765,0,0,1-2.159-.341,7.839,7.839,0,0,0-3.075-.853c-1.024.071-4.979,2.695-6.847,4.091s-3.3,2.762-3.73,3.886-.48,1.23,1.023,2.9.806,1.4.512,2.353-1.172,2.112-2.23,4.567-.441,3.648.837,6a22.034,22.034,0,0,0,3.445,5.044c1.027.988,1.755,2.048,2.637,2.421a3.514,3.514,0,0,1,1.465.921c.4.412.292.579,1.686.207a15.909,15.909,0,0,1,3.4-.921,3.6,3.6,0,0,1,2.453.547c.547.508.622.206.622-.071a6.788,6.788,0,0,1,.586-1.567,14.815,14.815,0,0,0,1.684-3.17c.219-1.024.219-3.071,1.5-3.207a33.672,33.672,0,0,1,6.516-.612c2.488.168,1.39,1.4.733,2.691s-.919,1.433-.919,2.421.295.992-.506,1.571-.3-.341-.625.238a5.13,5.13,0,0,1-1.355,1.262c.145-.134.512.985.512,1.532s-.11.817-.11,2.15-2.6,2.691-2.6,2.691a5.1,5.1,0,0,0,2.344.548,10.7,10.7,0,0,1,4.539.681c1.464.68,4.245-.547,6.3.477s1.319,1.634,1.461,2.591a29.536,29.536,0,0,1,.225,4.976c-.151.75-1.1,2.861-1.616,4.365s1.465,2.591,3.3,3.818a15.265,15.265,0,0,0,4.394,2.043c.943.274,2.7-1.433,5.929-1.226a5.072,5.072,0,0,1,4.317,2.931,13.883,13.883,0,0,1,1.831-4.023c1.468-2.318,1.536-3,3.512-3.751s2.64-.884,5.861-1.909,2.634-.27,4.314-.134a46.761,46.761,0,0,1,9.451,1.634c3.879,1.16,9.814,1.5,12.081,2.454s3.3,3.618,5.64,5.8,5.269,4.158,6.514,5.182,8.2,1.98,9.74,2.591,3.661,3.134,3.8,4.634,1.684,2.251,3.805,3.136,2.784,1.912,4.178,4.638.95,3.477,2.852,4.16,15.087,4.226,18.377,5.524,7.471,4.773,8.569,5.182,3.076-.345,3.955.134-.515,3.067.586,4.908,1.171,1.98.512,3.341-3.3,4.639-4.316,6.274-3.226,2.66-4.469,3.345-2.346,0-1.245,1.362.074,2.52-.879,3.75.075,1.087-.221,5.047,0,8.248-.441,9.954-3-1.5-5.93,2.183-3.73,6.475-5.488,6.884a23.4,23.4,0,0,0-7.249,3.75,8.83,8.83,0,0,0-2.567,3.683c-.875,1.906-1.753,5.794-2.706,8.182s-2.488,3.751-6,6.954-5.053,6.479-7.326,9-1.684,1.974-2.157,2.454c-1.213,1.215-6.209-1.964-4.919-.2.953,1.293-.537,0,.268,1.223s1.394,1.705-.363,3.888-3.786,1.751-5.176,2.092-3.467-1.433-3.613-.544-.949,3.09-2.049,3.635-4.024,1.364-3.95,1.706c1.385,6.46,4.227,7.134,1.217,6.838-8.256-.806-2.365-2.764-8.1,9.25-.875,1.845-1.755.888-1.61,3.071s0,3.818,1.175,5.182.363,1.294-1.612,3.136-2.124,1.571-3.953,4.364-3.589,2.66-2.933,4.774.808,5.25,1.9,8.385,3.368,2.589,6.957,4.774,4.028,1.02,5.785,1.567-1.246.683-4.4,1.227-5.2,1.158-7.394.685-7.391-3.48-9.151-4.776-4.61-3.611-5.636-5.861-1.759-4.5-3.075-7.568-.37-4.979.22-11.729,1.027-12,1.976-15.612,3.882-19.706,4.683-23.868,4.542-21.067,4.835-23.727a63.7,63.7,0,0,1,1.1-7.364c.586-2.658.222-8.048.222-8.318s-.222-.476-1.031-3a7.521,7.521,0,0,0-3.949-4.635c-1.828-1.094-3.737-2.455-5.2-3.48a22.2,22.2,0,0,1-4.686-4.293c-1.468-1.843-2.859-5.592-3.589-7.163a95.969,95.969,0,0,0-5.929-10.564c-2.489-3.683-2.636-3.754-3.883-7.642s1.1-3.953,1.539-6.135,1.9-4.364,3.516-7.428,3.733-3.957,4.979-6.682.292-2.73-.149-5.389.149-2.246-.663-3.681-1.239-3.2-1.973-3.68-1.828-.821-2.488-.067-1.831,2.929-2.562,3.067-1.027-.685-1.465-1.161-2.563-.477-3-.953-1.535-.547-2.265-.886a33.139,33.139,0,0,1-4.4-2.523,5.842,5.842,0,0,1-1.828-4.092c0-1.77-1.535-2.455-4.976-4.908s-4.91-2.8-9.084-3.821-5.856-3.953-7.25-4.77-1.243-1.707-4.319-1.365-6.809-1.364-9.155-2.317-6.516-1.636-8.277-2.794-4.824-1.571-6.144-4.364-1.1-1.707-.586-4.16-3-4.5-5.128-6.817-3.733-2.66-4.831-5.524-2.708-2.73-4.832-4.774-2.2-4.638-3.077-6.956-6.73-5.658-6.73-5.658,1.532,3.888,2.192,5.455a59.171,59.171,0,0,0,3.957,8.115c1.753,2.794,3.3,3.477,4.906,6.271s.074,4.5-.516,3.411-2.929-1.57-2.929-2.864a6.479,6.479,0,0,0-1.1-3.136c-.508-1.023-2.781-2.185-4.979-3.959s-3.73-2.587-2.343-2.587,3.37,1.293,3,.476-2.855-3.341-4.026-5.115-1.541-3.75-2.71-6.75-5.489-5.864-7.616-6.067-2.708-1.227-3.438-3.41-.878-4.5-1.831-6.205-5.053-7.43-5.124-9.612-1.246-8.524.219-12.07,1.1-11.452.879-13.023-2.859-4.564-2.859-5.727,1.541-.476,2.714-.138,3.655,1.365,3.655,1.365a31.841,31.841,0,0,0-3.07-4.771,16.822,16.822,0,0,0-6.152-3.138c-1.541-.337-3.514-.884-4.32-2.179s-1.682-3-2.272-4.1-3.077-2.382-3.657-3.543-.441-3.41-1.245-4.568a2.808,2.808,0,0,0-3.3-1.364c-1.32.477-1.751-.681-2.777-2.388a7.48,7.48,0,0,0-3.957-2.724c-.659-.206-2.926-3.205-3.074-3.955s-3.737-4.705-4.906-5.524-12.522-4.5-12.811-4.5-3.592.475-4.467.206-3.883-2.864-5.414-3.41-2.643.612-3.371,2.317-4.323,4.637-6.3,5.93-3.588,1.435-3.443.753a12.839,12.839,0,0,1,.737-3.411c.657-1.636,1.023-2.112,3.071-3.136s1.976-1.09,1.174-1.023-1.394-.136.22-1.089,2.269-1.1,2.194-1.912-3.514,1.1-5.713,2.865a19.989,19.989,0,0,0-5.415,6.134c-1.9,3.14.22,1.978-1.393,4.024s-7.1,6.208-8.711,7.775-8.273,5.043-10.986,5.864-3.805,1.159-5.124,2.25-4.61,1.429-3.516.683S8.2,171.65,9.6,170.833a58.634,58.634,0,0,1,6.222-2.722,20.212,20.212,0,0,0,5.713-4.024,35.73,35.73,0,0,0,3.587-5.318c1.023-1.638,1.245-2.389-.875-1.705a9.025,9.025,0,0,1-5.42,0c-1.1-.41-3.957,1.293-4.981.547s.075-2.322-.588-3.071-2.926-.272-4.391-.547-3.512-1.43-3.512-3.477-1.464-3.818-.662-5.384,1.982-1.98,3.3-2.864a19.108,19.108,0,0,1,5.71-2.046,4.287,4.287,0,0,0,2.417-1.433c.661-.68-1.539-3.138-1.539-3.138s.367-.272,1.246-.818.222-1.7-1.32-1.5-4.831,1.778-6.882,2.318-4.828.206-4.757-.68.511-1.431-.22-2.115-1.319-1.43-.586-1.769,5.273-2.865,5.273-2.865a6.59,6.59,0,0,0,3.367,1.976c1.757.206,5.488-3.067,5.488-3.067-2.34-1.433-1.828-1.84-1.828-1.84s-3.808-.067-4.686-.617a3.871,3.871,0,0,1-1.391-2.587c-.219-.954-3.953-1.706-2.926-3.277s2.926-2.113,4.173-3.68,2.343-4.5,5.932-6.137,7.908-3.137,9.81-4.5,2.781-.063,3.516.134,5.272-.2,7.026-.2,2.051,1.973,2.636,2.448,16.036.958,16.036.958,13.1.206,15.74.954,7.395,2.727,7.395,2.727c2.894-.374,2.639-3.888,4.429-3.888M258.1,28.536s-1.319,5.457-6.585,6.955a139.89,139.89,0,0,0-15.379,6c-.441.269.586,3.269,1.9,4.769s2.562,2.524,3.734,4.024,3.221,1.365,4.835,2.934,2.777,1.02,7.175,1.09,3.222.41,8.127.684,10.034.68,11.717,2.18,4.1,7.366,5.636,10.911,4.249,9.409,4.249,9.955-1.686,4.842-1.686,5.52.878,1.843,1.686,2.8.363,1.7.216,2.59.878,3.138,1.027,3.412,2.339-2.184,3.734-2.593,4.835,2.457,4.835,4.433c0,4.48,1.219,2.955-6.079,8.25-.962.7-1.9,6.067-1.172,8.656s2.489,5.662,3.879,9.345,5.492,8.861,6.808,11.251,1.687,5.658,4.612,6.411,5.714,1.771,7.836,2.247,3.514,1.159,4.539-.818,3.077-9.477,4.764-14.932-.151-7.091,3.805-8.317,10.249-3.684,11.932-4.431,1.394-6.135,5.127-7.913,4.246-1.633,7.907-2.793a49.82,49.82,0,0,0,12.451-6.069c3.659-2.591,4.683-1.226,6-3.615s-1.319-5.864-1.609-9.408,1.172-3.748,1.9-6.957,1.1-5.317,3.957-7.5,4.39-3.407,3.882-5.454-1.977-5.115-1.977-7.364.513-.953-.659-4.089-1.171-3.547-.076-6.478,4.029-2.18,3.811-3.482-4.686-3.269-4.757-6.884.8-4.7,1.535-5.591,8.2-6.817,8.714-7.365-.145-2.043,3.515-3.818,4.906-2.927,6.3-3.474,3.588-.478-.661-1.707-5.2-1.77-7.979-1.43-3.73,1.91-8.714,2.39a44.187,44.187,0,0,0-10.618,2.794s1.686-1.5.222-2.936S366.32,6.58,367.2,6.032s-6.884-2.453-10.914-3.2S344.355-.306,339.816.032s-11.2.275-13.475,1.023-1.973,3.683-4.539,3.822-7.32-1.5-10.983-.956S301.3,6.99,300.643,7.127s2.272,1.907,4.174,2.316,4.391,4.367,4.391,4.367-5.122-1.706-10.324-3.138-11.279,0-13.4.614a33.878,33.878,0,0,1-9.152,1.977c-4.249.2-9.077,3.681-11.494,5.316s-9.956,6-11.862,7.025-1.171,1.5.879,2.047,4.245.886,4.245.886M149.592,84.9c.583,2.5.583,6.091-.785,4.546s-2.488-4.685-4.683-3.414-4.588.914-4.2.643-.049-1.638-1.175-2.048-1.8.228-2.971.912-4.882,1.59-3.37.4,1.023-1.814.486-3.18-4.394.953-6.444,2.41-3.267,3.679-4.491,5.18-.341,2.459,1.513,3,4.835.91,2.343,1.822-4.392,1.541-3.121,2.318,3.467.908,5.662.632,4.052-.859,7.567.093a22.065,22.065,0,0,0,5.61.909,11.125,11.125,0,0,1-3.659,1.23c-2.343.4-6.641,0-8.839.4s-5.658,1-4.78,1.819a8.992,8.992,0,0,0,4.588,3.044c3.024.958,3.566.05,5.369.5s.834,2.5,1.32,2.82,3.908-.272,7.322-.908,2.146-1.186,4.835-1.867,2.777-2.724,4.342-3.181.441,1.047,2.293,1.5.83.593,2.832.912,1.61,1.09,3.564.953,4.246-1.453,3.953-1.684a1.7,1.7,0,0,1-.385-1.726c.193-.908-1.962.18-2.737.637s-.731-1.228.924-2.047,3.132,0,4.1,0,.1-2.82-1.662-3.271-2.536-1.548-5.176-3-1.267-2.092-2.047-4-2.443-7.551-3.908-8.55-3.026-.728-4.487-1.726a9.956,9.956,0,0,0,.292,3.908m-40.516-3.862c.637,1.817.731.679-.538,2.679s-.537,2.728-1.416,4.229-3.218,3.5-2.488,4.5,3.074,1.589,4.052,2.362,1.95,2.364,3.7,1.773a19.052,19.052,0,0,0,3.566-1.638c1.223-.632,2.247-1.36,2.2-2.955s-.1-2.358.4-2.224,1.266.864,1.655-.184a9.621,9.621,0,0,1,1.906-3.226c.828-.816,3.218-1.638,4.342-2.591s3.028-2,3.564-2.816-.979-1.455-1.9-1.822-2-1.815-4.148-1.815-3.319,1.637-3.222.908-1.465-1.091-2.34-1.409a7.566,7.566,0,0,0-4.493-.5,31.359,31.359,0,0,0-6.152,1.137c-1.9.542.687,1.769,1.32,3.591m63.554,21.773c-.29.406-1.561.818-2.34,1.725s1.658.411,2.437.683,1.368,1.043,2,1.274a11.643,11.643,0,0,0,5.47-.321c1.413-.679,1.558-.908,1.413-1.225a21.369,21.369,0,0,0-4.981-4.138c-2.051-1.091-2.1-1.134-2.536-.862s-1.171,2.452-1.465,2.864M163.4,81.539c-1.323.658-2.286,1.449-.045,2.591s2.978,2.091,4.491,3.044,2.146,3.684,5.321,2.457,4.442-2.683,4.886-3.957-.445-1.544-1.223-2.73-.975-1.68-2.589-1.5-2.15.184-2.15.184a9.027,9.027,0,0,1,2.833-2.228c1.757-.865.29-1.455,1.12-2.273s-2.095-1.224-3.363-.91-1.32-.089-3.419-.18-5.418,1.818-5.273,2.5,1.709.412,3.174,1.23,1.9.727.438,3.045-2.243-.546-2.733-.91-.1-1.045-1.468-.361m-9.367-4.182c-2.193.2-2.933,1.724-2.1,1.952s1.365-.229,2.682,1.182,2.492,2.184,3.026-.134-.241-3.322-3.608-3M118.788,59.763c-2.446,1.956-2.926,3.5-4.829,4.731s-1.468,2.272-.83,2.949,2.537-.044,3.416-.5,1.609-1.589,2.146-.908,2.784-2.318,3.663-3.322a7.522,7.522,0,0,1,2.492-2c.244.045-.837,1.181-.441,2.133s2.144,1,3.707-.634.149-3.139,1.368-4.411,2.245-1.1-.145-2.232a3.476,3.476,0,0,0-4.4.731c-.486.59-1.365-.366-6.151,3.452m14.887,3.093c-1.384.063-2,.274-4.294,1.271s-3.27,3.592-3.8,5,.241,1.409,2.343,2.228,5.029-.226,5.707-2.183,1.519.455,1.126,1.455,1.465.092,2.343-.366a14.1,14.1,0,0,1,3.708-.634,13.367,13.367,0,0,1-4.445,2.546,32.445,32.445,0,0,1-4.783,1.271c-.634.094.592,1.045,3.27,1.594s4.3-1.638,8.158-3.094,3.659-1.73,4.928-1.363,2.637-.636,4.2-1,2.2.233,2.883-2.09,1.9-4.544-.295-4.683-2.344-.134-2.637,2.368-.49.954-.49.954-1.464-2.183-2.343-3.322-1.513-2.905-2.488-3.862-1.417.409-2.93,2.092-.292,2.317,1.221,3.046,2.587,2.591,1.857,3.088-1.565-.089-4.345.229-2.686-.862-3.468-1.226,1.318-1.137-1.664-2.362-2.775-1-3.756-.956m-9.029,2.365c.309-.526-3.7,2.362-4.316,3.293s.612.773,1.831.727,1.465-2.271,2.485-4.02m7.716-6.026c-1,.451-1,.8.632.976s2.59-.546,2.246-1.227-2.073-.111-2.878.251m8.322-8.632c-1.072.177-4.246,1.293-4.42,1.834a4.321,4.321,0,0,0,.515,2.664c.489.93.663,1.068,3.389.34s4.616-2.136,3.708-2.387a18.875,18.875,0,0,0-2.263-.772c-.808-.114.7-.547,2.511-1.112s2.417-1.548-3.441-.566m-9.248,1.428c-.773.356-1.053.361.56.98s3.344.566,3.121.067a2.686,2.686,0,0,0-3.681-1.047m6.292-4.476a4.431,4.431,0,0,0-2.218,2.135c-.341.434,1.731-.317,2.682-.546s1.171.339,2.1-.478,2.759.026,4.42-.341,1.925-1.451,1.562-2.4-4.175-.093-8.547,1.634m16.55,4.113c-.451.217-.294.931.1,1.774s.489.634,1.316.953a6.454,6.454,0,0,1,1.854,1.181c.2.207.315.274.659-.542s-.171-.684-1.1-1.774-1.658-2.161-2.832-1.592m5.639,7.138a2.89,2.89,0,0,0-2.444.61c-.463.229.244.751.564,1.726s.049,1.3,1.9,1.437,2.418-.208,2.563-1.387-1.413-2.068-2.585-2.386m7.2,2.136c-1.15-.842-1.709-1.526-2.881-1.046s-.2,1.067-.2,1.387,1.416-.045,1.442.729.46,1.086-1.245,1.181-2.176.022-2.833.52,1.271-.067,1.857.707,1.588.862,3.22.613,3.856-.613,3.856-.613a13,13,0,0,0-1.684,1.929c-.486.8-.683,1.933.171,2.5s.953-.587,3.322-.634,3.075-1.272,3.075-1.272a2.23,2.23,0,0,1-.464-1.705,4.73,4.73,0,0,0-.026-1.455,9.75,9.75,0,0,1,1.172.954s-.171-.7-.511-1.978-.071-1.365-.441-3.092-.294-2.091-2.074-2.047-3,.663-4.471.663-2.1.272-1.02.818,1.223,1.2,1.733,1.814a4.051,4.051,0,0,1,.441,2.026c.022-.067-2.44-2-2.44-2m-8.91,6.477a.414.414,0,0,0-.078.034,2.119,2.119,0,0,0-1.046,1.762c-.048.594.979.25,2.615-.319s.83-2.224-1.491-1.477m23.041-3.089a11.972,11.972,0,0,0-3.222,2.613c-.778.884-.1,1,1.928,2.021s4.2,1.226,5.148.159-.438-6.66-3.853-4.793m9.418-7.931c-2.6.257-1.792.643-4.8-.343a28.18,28.18,0,0,0-7.8-1.094c-1.027,0-.547.48.515,2.223s1.351,2.348,3.551,1.8,3.988-.918,5.6,1.4,2.453,3.039,1.134,3.887-.7,2.216.074,3.992,2.524,1.7,4.979,1.7,17.974-.234,20.391-.679,4.575-2.488,5.859-3.407,1.977-2.353.22-3.412a13.567,13.567,0,0,0-6.226-2.044c-1.98,0-3.661,1.024-6.663,1.328s-2.34,1.743-5.051,1.81-1.394,1.261-4.725-.1-5.785-3.071-4.2-3.309,2.852-.441,1.973-1.192-2.417-2.8-4.835-2.555M159.622,43.674c1.61.546,2.016.953.22,1.43s-3.187,1.737-1.391,1.5,3.332.169,5.636.547,2.122.134,3.149,1.433,2.124,1.293,3.7.921,1.79-.48.769-1.606-2.09-3.2-3.48-4.02-2.563-1.981-3.957-1.839-1.718.168-2.929-1.469-2.157-.855-3.918-.412-2.317,1.7-3,2.255c-1.391,1.126,3.589.715,5.2,1.261m21.091-16.7c-1.906,2.384-3.445,4.4-1.288,4.633s3.112-.168,3.261.517-.367,1.155-3.589,1.155-2.23.719-.437,2.83,1.98,1.4,4.722,1.328,3.659-1.059,5.932-.473,2.965,1.159.914,1.771-6.885,1.77-5.785,2.793,4.5,3.477,6.042,3.717,1.863-1.021,5.2-.649,2.527.716,2.891-.2,2.2-3.27,2.561-4.125,1.285-1.4,3.114-1.806,2.417-.988.694-1.6-3.659-.886-3.476-1.362,1.245-1.877.508-2.6-1.9-.681-2.855-1.055-2.012-2.112-3.222-2.86-2.267-.822-3.734-1.945-3.8-3.869-6.734-3.716c-1.973.1-2.819,1.259-4.718,3.649m-3.741,19.942c-.731.374-2.559.441-1.2,1.566s.988,1.161,2.7.513,4.214-2.251,4.436-2.73-1.722-1.4-3.042-1.8-2.23-1.465-4.979-2.218c-3.992-1.09,2.82,4.293,2.086,4.672m89.572-35.464c-3.026-.822-13.86-2.914-17.376-2.1s-3.322-1.815-8.2-1.179-12.4.272-14.739.635,1.169,1.365,2.44,2.183-6.051-.908-11.62.637-9.177,2.362-3.216,4.636,6.734,2.909,6.734,2.909-7.615-1.364-10.838-2.636-1.461-1.181-7.519.543-11.906,2.64-11.614,4.457,4.884,4.275,7.906,4.908,9.278-.908,9.766-1.091-2.443,2.457-2.443,2.457,3.123-.639,6.637-1.549,6.248-1.906,9.57-3.092a29.054,29.054,0,0,0,3.9-1.544s-5.759,4.458-9.764,6a43.729,43.729,0,0,1-11.617,2.638c-2.44.091-2.053,1.637.389,2.909s4.294,4,5.565,4.906a3.834,3.834,0,0,1,1.465,2.368,6.768,6.768,0,0,0-8.005,0c-4.2,2.995-3.615,4.544-2.539,4.908s4.783.727,5.466,2,5.565-1.182,5.565-1.182-2.436,3.092-4.783,3.092-2.243-2-5.662-1.636-3.222,1.186-1.755,2.362,2.637,1.549.1,2.731-3.711,1.544-3.808,3,3.318,1.455,5.466,1.455,4.2-.185,8.1-.273,3.415-1.365,4.88-1.365,2.93.455,2.344,1.911.582.546,4.882-1,2.337-3.914,2.051-4.73-1.858-1.09-2.833-1.545,2.929-4.458,2.34-5.815,4.786-.277,7.223-3.459,1.565-5.546-.193-6.089,3.225-.181,4.783-1.1,4.983-2,6.347-3.723,1.854-2.365-1.461-2,4.776-1.455,8.684-4,8.4-5.545,9.371-6.271,1.861-.367-2.733-.091-10.056-.365-7.026-.728,12.01-1.455,14.353-3.181a27.962,27.962,0,0,1,3.412-2.271m-54.667,63.09c-4.886-.456-12.006-1.636-13.473,2.543a130.352,130.352,0,0,0-3.9,15.187c-.193,1.724,5.859,4.27,10.056,4.451s11.035.455,9.667-.543-.2-1.545,3.708-1.365,4.3-.818,4.3-1.634.683,1,3.415,2.453,5.079,5.547,7.519,7.911,7.906,5.545,6.834,7.366,1.169,8.182-7.229,9.637-8.881.451-8.781,2.362.484,2.726,3.805,2.726,7.908-2.726,9.47-.728a10.04,10.04,0,0,0,5.079,3.185c1.364.453-1.662,1.267-2.444,1.545s1.662.543,6.444,2.815,10.542,2.547,7.709.913-4.193-4.637-5.466-5.64-.1-.181,2.15.367,4.294,2.361,5.269,3.18,1.465-.269,2.148-3.458-.29-3.181-4.1-5.723-4.976-4.544-5.369-6.366,1.954-2.184,2.933-3.459,3.711,2.277,5.565,4.367,3.412,5.729,4.88,3.093a33.257,33.257,0,0,0,2.825-9.912c0-1.362-1.461.091-7.705-3s-9.473-4.272-10.056-4.272,1.658-1.179,4.394-2.543,3.9-1.181-1.958-6.728-7.515-6.728-11.323-7.091-4.88-4.367-7.613-5.728-9.08,1.636-10.938,2.092-1.268,1.179-3.611-2.181-4.195-5.82-4.195-5.82m4.391,0c-2.427.288,1.465,4.725,4.586,4.912s5.762-1.365,6.444-1.549-7.223-3.82-11.031-3.363m-10.957,45.091a23.256,23.256,0,0,0-1.539,5.595,10.017,10.017,0,0,1-.8,3.269c-.365,1.159,1.171-.2,2.2,1.5s.579,2.181,2.414.2a5.726,5.726,0,0,1,6.442-1.841c2.564.818,4.541,1.159,3.662-.406s-2.051-1.434-3.808-3.545a10.3,10.3,0,0,0-5.269-3.48c-2.2-.817-2.421-3.41-3.3-1.3m18.422,159.3c-.756-1.578-1.893-4.133-6.641-5.016s-6.35.883-8.1,1.475,1.638.882,3.9,0,3.979-.19,4.288.215-.763.654-1.147.222-.46,1.059,2.092,1.98,3.174,1.362,3.432,2.457a6.89,6.89,0,0,0,.815,2.594c.583.914.8,1.3-.27,1.7s-.7.348.093.838a10.467,10.467,0,0,0,4.616,1.487c2.23.19,2.968.605,1.416-1.437s-4.249-6.019-4.487-6.514m7.091,9.985a3.555,3.555,0,0,1,.791,3.373c-.087.728-1.418.164-3.871-.482s-2.077-.332.054.817,3.509.869,3.415,2.4,1.958.142,2.861-.747.844-.1,4.629.471,4.564,1.255,3.963-.406,1.735-1.526-1.629-3.11-11.617-3.759-10.214-2.317m-10.78.947c-1.426-1.577-3.205-1.806-3.222-.463s.484,1.261,1.8,1.628,2.338-.16,1.426-1.165m27.5,6.84c-1.548-.531-1.867.634-.837,1.606s2.613.635,4.171.56-.631-1.236-3.335-2.166M229.73,106.435c-2.055.866-3.258,1.466-1.465,3.818s2.859,3.817,3.547,2.114,1.394-7.4-2.082-5.932m-16.436,25.241c-3.094.5-4.1.587-3.615,2.32s1.32,1.451,3.415.406,3.567-3.271.2-2.726m6.441,2.637c-.528.159-.683,1.363,0,2.453s2-.362,2.589-1.682-.635-1.364-2.589-.771M185.956,50.4c-2.926.1-7.322,1.133-4.882,1.179s4.445.547,8.4.321,4.339-.5,4.439-2.41-2.585.727-7.957.91m-18.3-16.047c-2.988.927-2.247,1.545,1.265,3.092s3.614.816,3.225-2.093-2.732-1.544-4.489-1m208.654,76.085c-3.7,1.034-4.938.415-5.639,2.294s-2.15.869-2.988,1.1-2.017,5.467-2.6,4.687a14.308,14.308,0,0,1-1.651-3c-.85-1.8.281-1.482-1.345-3.377s-4.841-1.678-5.07-.9,2.221,1.427,1.39,2.3a42.51,42.51,0,0,1-3.579,2.591c-.753.635,1.448.357,2.833.032s2.33,1.041,2.9,2.007-.634,1.907-1.232,2.377,2.012.359,3.054.551,1.59,1.073.879,2.255,3.1.167,5.217.044,2.666,1.45,5.859.447,4.716-.931,7.625-3.083,2.686-1.652,4.616-3.042,1.469-1.817,1.549-3.355,1.274.433.82-1.89-2.836-1.694-4.5-1.875-1.606-1.488-2.443-1.9-1.938.692-5.688,1.737M623.441,310.718a7.286,7.286,0,0,0-.393,2.409c0,1.228-.145,2.549-.048,3.772s.171,2.092.853,2.366a2.268,2.268,0,0,0,2.272.022c1.124-.521,2.174-1.455,1.612-2.864a38.683,38.683,0,0,0-2.224-4.385c-.608-1.043-1.779-2.362-2.073-1.32m-.895-1.686c.119.521.287.412.534.772s.512.045.171-.431-.3-.534-.3-.534-.435-.149-.435.283m105.427,72.469c-.016.057-.08.084-.119.129-2.005,2.029-3.827,1.461-7.271,2.529-3.512,1.089-9.593,4.635-10.034,6.207s0,1.77-.437,1.565a5.357,5.357,0,0,1-1.175-1.159,7.445,7.445,0,0,0-.731,3.614c.218,1.7,1.023,2.727.953,4.91s-.879,3.476-.806,4.976,2.56,4.365,3.222,6.142,1.1,1.294,1.461,4.5,2.051,4.973.365,6.68-2.926,1.361-.875,3.134,3.737,2.934,7.026,1.774,2.42-2.183,4.983-2.73,3.074-1.087,5.269-1.226,3.734.067,4.545-1.5.216-1.5,2.411-2.594,1.976-1.365,3.443-1.636,2.414.754,4.391-.817.512-1.707,4.906-1.707a20.962,20.962,0,0,1,7.835,1.159c1.612.548,4.249,1.977,4.906,3s1.539,2.253,1.828,2.253.663.065,1.686-.956a44.022,44.022,0,0,1,3.953-3.068,7.324,7.324,0,0,1-.8,3,3.845,3.845,0,0,0-.663,2.387c0,.4,1.686-1.3,1.908-1.365s.438,3,.657,3.271.882.134,1.539,1.024a11.254,11.254,0,0,1,2.2,3.273c.657,1.7,3.441,3.408,5.2,3.679a14.538,14.538,0,0,0,4.612-.067c1.316-.2,1.39-1.774,2.781-1.155s-.071,1.9,3.222,1.634,4.174-1.365,5.49-2.254,1.465,1.23,3.149-1.087,1.977-1.774,2.269-4.571.22-3.341,1.828-6,1.983-1.365,3.081-5.247,2.488-7.571,2.343-10.774.067-1.091-.663-4.709-.219-3.2-2.561-4.7-2.926-1.094-3.516-3.205.149-2.73-.953-2.73-2.051.476-2.706-.953-.583-1.977-1.828-3.341-2.414-1.091-4.687-2.112-1.1-1.3-1.1-3.071.129-3.657-1.68-4.476-.732.453-.732-2.457,0-2.5-1.464-3-1.954-.454-2.881-2.23-2.146-4.681-2.585-5.859-.975.136-1.564,1a9.147,9.147,0,0,0-1.416,4.545c0,1.77.782,2.775.782,5.137s-1.658,4.726-2.686,6.09-1.854.136-2.735-.229-1.072-1.684-2.926-2.591-5.27-1.725-6.834-3.134-.49-1.456,0-2.911A7.417,7.417,0,0,1,766.1,364c1.172-.953.83-1.32-.634-2.137s-3.516-.861-6.007-.861-3.953-.181-3.808,1.228,1.61,1.951-.482,1.545-3.908-.592-4.835.406-1.126,1.6-1.662,3.732.149,2.268-.731,2.268-4.346-1.681-5.517-2.176-1.8-.458-3.171.817a75.317,75.317,0,0,1-7.86,6.406c-1.761,1-1.664.773-3.445,6.367m-65.136-61.455c-1.037-.141-1.614-.411-.345,1.223a19.47,19.47,0,0,0,2.833,3.094c1.219,1.135,1.66-.821,2.589,1.362s.584,2.227,1.513,3.045,1.708,1.049,1.95,1.866a5.7,5.7,0,0,0,1.612,3c1.076.908,1.076.772,1.707,2.542s1.612,3.045,2.1,4.545,3.271,2.911,4.683,4.729,3.812,4.456,4.2,3.728,1.413,0,2.148-.27.975-1.32,1.464-3.866-.441-3.727-1.126-4.32-1.951-.724-2.289-1.271-.927-2.408-1.757-3-1.03.045-1.03-1.411.979-1.316-.242-2.133a6.5,6.5,0,0,1-1.761-1.819c-.385-.409-3.022-1.046-3.707-1.773s-3.56-2.047-4.929-3.412-2.88-2.453-3.318-3.451-1.809-1.821-6.3-2.408m28.406,29.318c-1.169,0-1.755-.683-2.537.728s-.683,1.409.538,1.409.975.637.923.817-.582-.138,1.906.862,4.249.594,4.932.225.927.912,4.345,1.456,5.221-.315,7.417.229,1.664-.274.1-1.452-1.416-.547-2.98-1.684-3.756-1.182-4.78-1.365.875,1.091-2.243.68-2,.277-3.615-.769-1.612-1.227-2.687-1.411-1.316.274-1.316.274m24.8,5c-.879.275-2.684.776-1.854,1.137s.19.593,2.781.363,4.835-.544,5.172-1.091-.437-.18-1.515-.5-.975.229-2.44.411a3.145,3.145,0,0,1-2.144-.318m9.081-.184c-1.733.212-1.517.592-.149,1a7.073,7.073,0,0,0,3.66.316,16.73,16.73,0,0,1,3.077-.861c1.9-.321,2.536-.275,4.046-.459l1.519-.18s-.149-.315-1.175-.27-1.751.089-2.781.089-2.781.909-3.514.862-2.144-.5-2.489-.273-.337-.454-2.194-.229m9.762,2.228a.4.4,0,0,0-.065.045c-1.206.828-1.258,1.055-1.148,1.712a1.24,1.24,0,0,1-.132.953,5.187,5.187,0,0,0,3.132-1.448,5.11,5.11,0,0,1,2.8-1.841,10.6,10.6,0,0,0,2.967-2.009,8.755,8.755,0,0,1-2.3.136,4.333,4.333,0,0,0-2.785.953c-.383.325.38.411-2.462,1.5m-10.2.718c-1.272-.912-2.5-.781-2.6-.222s-1.1.528.692,1.195,3.5,1.535,3.37.627-.914-1.21-1.464-1.6m-11.666-37.9c-.735,1.046.683.772-.393,1.682s-1.9.5-2.97,1.861a15.351,15.351,0,0,1-3.371,2.82c-.682.5-2.883,1.087-3.86,2.412a1.3,1.3,0,0,0,.345,2.043s-.59.272-2.15-.318-1.658-1.316-1.658-1.316-1.124-.045-1.755,1.634S696.2,332,697.315,333s-.776,1.043-.534,1.725.248,1.958.927,2.092.83-.636,1.664.41.145,4,1.217,4.136,1.854-.319,2.781.089a3.344,3.344,0,0,0,2.832.365,4.19,4.19,0,0,1,3.174.363,10.426,10.426,0,0,0,4.05,1.046c1.126-.09,1.316.184,1.513-1.409s.052-3.09,1.416-4.317,1.416-1.23,1.513-2.366a6.393,6.393,0,0,1,.931-3.5c.824-1.186,1.316.681,1.757-.229s.878-.905.631-1.362-1.513-.458-2-1.32.147-1.32-.441-3.09-.925-1.091-.1-2.092,1.513-1.182,1.61-1.954.437-.821,1.468-1.545-.164-.387-1.139-1.113-2.8-3.454-3.94-3.432c-.612.009-2.93,2.771-3.66,3.818m144.235,96.5c-.469-.344-.873-.09.2,1.182s1.169.909,1.85.953,1.271,2.549,1.658,3.186a10.994,10.994,0,0,0,1.124,1.407,13.793,13.793,0,0,1,.052,3.957c-.341,1.226-1.075,1.77-1.316,2.909s1.12.817,2,1.182.73.363.389,1.362-1.367,1.455-1.367,1.638,2,1.316,3.028.089,2.63-3.045,3.077-4.361-.785-.731.631-1.684,1.219-.5,1.954-1.684,1.509-2.408.683-3.045-1.755.773-2.5,1.046a2.555,2.555,0,0,1-2.339-.184c-1.024-.5-1.221-.5-1.61-1.409a5.079,5.079,0,0,0-.879-1.409s-.3,1.545-1.023,1.049-.542-1.049-1.076-1.912a17.846,17.846,0,0,1-.882-1.77c-.339-.636-.048-1.867-1.753-2.047s-1.469-.136-1.91-.454m.3,16.5a18.462,18.462,0,0,0-2.585,2.863,12.557,12.557,0,0,0-1.8,3.227c-.391.908-1.806,2-4.149,3.226s-3.225,1.729-4,2.864-3.564,4.681-3.9,5.092,1.312.82,3.026.82,4.39,1.544,5.855-.047,2.929-5.366,3.856-6.728a17.1,17.1,0,0,1,3.271-3.184c1.461-1.316,3.9-3.773,3.9-4.729a8.817,8.817,0,0,0-.634-2.5,1.835,1.835,0,0,1-1.809.908c-1.269-.134-1.024-1.815-1.024-1.815m-11.51,17.46c-1.716-.908-2.051.782-2.328,2.516s.741.261,2.231-.521.75-1.647.1-2m-58.046-11.917c-1.932-.644-1.61,1.184-1.318,2.546A10.084,10.084,0,0,0,788.061,444c.732,1.139,3.464,1.545,4.542,1.049s1.852-2.181,2.926-3.776a6.858,6.858,0,0,0,1.368-4.361c-.2-.956-1.561.862-2.442,1.274s-2.051,1.455-3.708,1a14.272,14.272,0,0,1-2.784-1.32m-24.306-97.593c-1.562.363-2.343-1-3.615-3.639s-2.243-3-5.466-1.818-2.732.912-.586,1.729a29.1,29.1,0,0,0,2.733,1.091c.292,0,3.418.454,2.732.908s-3.612.908-1.757,2.183,1.074.363,5.958,2.819,5.662.637,7.227,3.818,1.558,2.637.29,3.456-2.93,1.636-2.245,1.726a45.3,45.3,0,0,0,5.27.547c3.322.18.2,2.09,3.9,2.09s4.687-1.182,6.152-2.911,1.757-.817,4.88-.09,4.2,3.455,8.1,4.546,5.563,2.546,3.123.273-3.319-3.908-6.641-6.547-3.512-2.911-4.487-4.91-4.394-4.364-8.2-5.909-5.987-1.761-10.448-3c-4.59-1.271-5.37,3.274-6.931,3.639m-25.683-9.091c-1.461,1.021-1.642.4-2.736-.279s-.789,1.413-3.222.279-3.341-1.7-5.958.229-.973,2.717-1.036,4.076-2.189,5.208-2.982,6.624-.782,1.925-.18,2.833,1.461.563,1.824,1.016,0,4.021-.428,5.208,1.037,1.417,2.556,1.076.184-.451.184-1.7.727-1.813.727-4.136v-3.393s.428-.229.976.564,1.338,3,2.006,4.136,1.336,1.98,2.372,1.184,2-1.7,2-1.7-2-.621-2-1.3.849-1.241-.55-3.508-2.124-2.379-.361-2.492,1.7-1.87,2.732-2.379a5.226,5.226,0,0,1,2.5-.338,2.722,2.722,0,0,0-2.614-.624,19.937,19.937,0,0,0-4.32,1.417c-1.336.733-2.494,1.191-2.736-.171a9.368,9.368,0,0,1-.241-3.57c.184-1.867,2.308-.45,3.891-.9s1.584-.341,5.048-.116,3.707-.566,4.742-1.98a14.49,14.49,0,0,0,1.638-3.061s-2.369,1.982-3.827,3m8.208-4.954c.309-.566-2.54,1.951-3.073,2.453s0,1.227.385,1.958.3,3.225.441,3.769,1.612,1.046,1.612,1.046a5.284,5.284,0,0,1,.486-2.453c.538-.772,0-1.729,0-3.136s-.778-1.956.149-3.637m-5.613,14.923c-2.241-.856-3.077-.292-3.077.879s-.248,1.755,2.137,1.755,5.086-1.052.94-2.634m4.461-.759c-.551.173-1.13,1.931-.815,2.98s.689.354,1.947.119,1.063-1.227,2.633-1.346,4.839,1.111,4.839,1.111.692-.817-1.816-2.395-3.654-1.464-6.788-.469m-44.66-57.824s-2.242.065-2.587.065-1.124.869-1.684,1.21-.56.815-.167,1.7,1.046.934,2.144,1.23.707-.476,1.516-.772a2.1,2.1,0,0,0,1.2-1.681,2.55,2.55,0,0,1,.9-1.184c.194-.225-.634-1-.634-1.069a4.729,4.729,0,0,0-.687.5m26.435,3.158c-.883-.653-1.368,1.638-1.614,2.816s-.537,1.958-.1,2.82.244,1.139.244,1.139l-1.271-.959a8.155,8.155,0,0,0-.341,2.048c0,.956-.393,1.364,1.074,2.047s1.954.315,2.144,1.364.2,1.5,1.175,1.681a3.918,3.918,0,0,1,2.488,1.23c.389.634.194-1.687.879-1.548a3.954,3.954,0,0,1,1.954,1.773,1.682,1.682,0,0,0,1.217.817s-1.121-1.863-.631-2.092.631-.4-.638-1.181a6.812,6.812,0,0,0-3.268-.728c-.975-.136-.975.683-1.709-1.226a5.614,5.614,0,0,1-.145-3.5c0-.406.535.637,1.124-.683a6.936,6.936,0,0,0,.631-3.633c-.1-1.271.879-1.774.145-1.819s-2.878,0-3.363-.363m11.613,24.428c.149.921-.875-.257-1.261.27s-.586.425-1.208.683a13.1,13.1,0,0,0-2.122,1.655s-.018-.9.017-1.108-.458-1.262-.914-.547A4.19,4.19,0,0,1,731,312.792a2.948,2.948,0,0,0-1.79,2.181c-.132.921.622.888.622.888a5.862,5.862,0,0,0,1.081-1.364c.676-1.056.8-1.024,2.029-1.178s1.133-.136,1.522.528.091,1.673.125,2.408-.035,1.616,1.223,2.044.663.035,1.815-.067,1.137-.071.969-.65a10.025,10.025,0,0,1-.588-1.77c-.071-.683.666-.972.9-1.108s.387.683.733,1.532.493.819.641.171a9.81,9.81,0,0,0,.4-3,11.388,11.388,0,0,1-.219-2.131,2.654,2.654,0,0,0-.9-1.738c-.331-.242-1.464-1.243-1.464-1.243s.167.936.308,1.857m-5.617-5.565s.026-.579-1.033-1.619-1.087-1.342-2.706-1.623-3.233.142-2.55,1.878.882,1.989,2.25,2.2a2.818,2.818,0,0,0,2.2-.534s.1.277-1.188,1.087-1.438,2.36-.428,2.961.985,1.526,1.568,1.063,1.007-2.057,2.194-3.168,1.262-1.271,1.417-2.453a9.412,9.412,0,0,0,.026-2.127Zm2.766-3.332c-.149.116-.992-.087-.113.767s1.683,1.04,1.574,1.668-.035.753-.528.681-.644-.186-.862-.2-.252.41-.107.8.107-.052.529.612a3.233,3.233,0,0,1,.441,1.655c.128.766.456.393.456.393s-.109-1.841-.054-2.215-.149-1.281.473-.992.456,1.385.824.361a4.7,4.7,0,0,0,.023-2.746c-.183-.82-.827-.852-1.577-.852a5.885,5.885,0,0,0-1.078.07m-12.628,3.152c-.363.089-.59.443-.808,1.69a4.621,4.621,0,0,1-1.664,2.624,24.541,24.541,0,0,0-2.894,3.086c-.117.389-.132.151,1.39-.566s2.727-1.668,2.9-2.64-.177-.374,1.162-1,.656-.837.711-1.827-.132-1.532-.8-1.362m80.82,37.226c-.164,1.265.363,1.641-.808,2.568s-2.488.934-3.737,1.139-.335-.206-1.876-.251-1.932.069-1.221.84.534,1.522,2.8,1.433,4.148-1.316,5.617-1.77,1.341-1.64,1.464-2.183-2.077-3.138-2.243-1.777m6.341,2.73c.628.891.389.753,1.195,1.931A5.043,5.043,0,0,0,814.321,348c.95.316,0-.341-.7-1.294a11.117,11.117,0,0,0-1.809-2.433c-1.05-.953-2.807-1.478-1.709.09m-82.442-76.436c-3.128,1.99-4.539,1.841-3.293,4.365s2.025,3.592,2.2,4.068.8-.318,1.654-2.317.956-4.616,1.3-5.407-.782-1.391-1.854-.709m53.573-98.07c.344,1.32.681,3.364-.1,3.589s-1.32,1.684-1.513,3.186-.586,3.406.242,4.59.244,1.268.244,2.273.292,3.544-.2,5.044-.778,1.863-.583,3.454a29.652,29.652,0,0,1,0,4.184c0,2.273-.145,4.089-.048,5s.583-.451.924-.769a2.007,2.007,0,0,1,2.391.273l.737.773s1.169.5-.441-2.956-1.9-2.726-1.464-5.864.681-3.181,2.339-3.5,2.537,1.958,2.736,2.183-.147-.772-.734-2.542-1.122-2.364-1.315-4.59-.883-4.095-1.759-4.729-.437-1.684-.048-2.546a7.151,7.151,0,0,0,.344-3.683,38.776,38.776,0,0,0-.878-4.409c-.248-.818-1.223.5-1.223.5Zm-1.465,34.823a4.353,4.353,0,0,1-.486,3.041c-.685,1.137-.2,1.409-.586,3s-2.295,0-2.295.322a3.311,3.311,0,0,1-.782,1.861c-.486.409-2.15.5-1.66,2.092a22.492,22.492,0,0,0,1.371,3.271,7.793,7.793,0,0,1,1.265-1c.3-.09,1.076-.315,1.076-.315s-.145-.458-1.221-.957a1.468,1.468,0,0,1-.83-1.863c.149-.322,1.513.091,2.392,0s1.612-.547,2.687.316a7.141,7.141,0,0,0,2.636,1.184,8.059,8.059,0,0,1,.679-2.183c.49-.908,1.906-.5,3.323-.908s2.488-.637,2-1.23-.441-1.909-.737-2.909-1.221-.045-1.951.318a2.743,2.743,0,0,1-2.637-.543,19.618,19.618,0,0,1-3.366-4s-.979-.5-.879.5m-4.372,14.906a3.194,3.194,0,0,0-.949,2.762c.11,1.329,1.243-.1-.222,3.988s-2.2,5.012-3.624,6.071a3.5,3.5,0,0,1-3.293.782c-.549-.27.149-1.193.551-1.468s-1.249-.374-1.941-.27-.039.888-.112,1.532-1.426,2.388-1.278,3.174.145,1.023-.734,1.293-1.461-.65-1.718-.785a20.929,20.929,0,0,0-3.3.476,3.263,3.263,0,0,0-2.89,2.083c-.734,1.262-2.456,1.465-3.7,1.941s-.769,2.254-2.126,2.865-1.354,1.738-1.464,2.658.84.273.988.206.149-1.3.992-1.159.949.167.508,1.124-.692,1.433-1.13,2.25.146,1.195.8,2.015,1.285-.241,2.673-1.706,1.5-1.809,1.394-3.48-.663-1.707-1.685-2.179-1.248,0-.112-1.3,1.648-.032,2.418-.612,2.636-.547,4.429-.988,3.518-1.02,3.589-.445.624,2.524.692,2.933,1.253-.579,2.453-1.024.078-.643-.035-1.429a1.34,1.34,0,0,1,.55-1.23s.626,1.3,2.563.376,2.09-1.3,2.6-1.161.844.65,1.646.138.955-.036.808.376,2.343-.785,2.89-1.159.257-.036.035-1.468-.914-1.532-.508-3.373a16.192,16.192,0,0,0,.4-3.174c.106-1.159.547-1.325.84-1.4s.3-1.6.914-2.418.476-1.193.476-3.071-1.027-1.535-1.094-2.861a10.018,10.018,0,0,1,.251-2.626s-2.086.785-2.3,1.262l-.225.476s-.326-.341-1.024,0m-13.663,20.488a38.287,38.287,0,0,0-4.97,1c-1.284.412-1.558.976-1.358,2.258a26.827,26.827,0,0,0,.878,3.231c.177.666.879,0,2.086-.641s1.13-2.514,2.286-2.514.727,1.336,2.282-.538.376-2.027.424-2.974-1.628.177-1.628.177m136.8-100.966c-2.315-.451-2.984-.953-3.2-.116s-.467,1.118,1,1.638,2.2-.385,3.568.639,1.755.975,2.8.839a2.264,2.264,0,0,0,1.465-.659,33.087,33.087,0,0,0-5.636-2.34m-26.44-36.422c-.851.239-1.543-.579-1.32,1.5s.692,2.318,3.364,1.942a33.147,33.147,0,0,1,4.323-.372c3.659-.272,4.426-.786,4.426-.786a6.434,6.434,0,0,0-1.755-1.977c-1.245-.953-2.894.652-5.714.172a30.854,30.854,0,0,0-3.324-.478M789.6,71.969c.035.8,3.659,3.032,4.976,3.683s2.341.371,5.128.067,3-1.5,3.328-2.179-1.316-.445-3.181-.818-3.4.339-4.065,0,.988-.681-.659-1.3-2.051.2-2.418-.067-.437-.857-1.243-.919-1.9.785-1.866,1.532m-14.354,4.67c-1.262.5-1.172.954.255,2.146s.956.919.331,1.773,0-.035,2.051.886,2.894,2.594,4.175,2.969a3.016,3.016,0,0,0,2.159-.1,11.683,11.683,0,0,0-1.647-3c-1.208-1.637-3.812-2.112-4.288-3.544s-1.243-1.845-3.036-1.126m13.069-6.681s-1.863-1.126-4.686-2.9-3.879-2.251-4.832-2.386-.8.992-1.171,1.872-.622.715-2.09,0-2.929-1.805-4.426-2.15-2.414.891-4.136,2.6-.731,2.181,1.356,4.7,3,2.661,4.683,1.669,1.206-1.634,2.417-1.159,5.382-.476,5.53-.476-.257,2.318,1.574,1.706,3.512-.919,4.355-1.84,1.426-1.637,1.426-1.637m-126.779-48.7c-.534.451-3.659.182-5.272,2.726s-2.73.775-3.564,2.318a31.912,31.912,0,0,0-1.513,3.411s1.468,1.727,3.028,1.593a6.928,6.928,0,0,1,5.807,2.636c1.513,2.087,2.636,2.087,6.3,2.677s2,1.1,3.907.914,4.535.226,3.953-.731a4.125,4.125,0,0,1-.78-3.41c.242-1.863,1.947-1.773-.052-3a4.191,4.191,0,0,0-3.318-.451c.1-.229,1.806-.913,1.124-.958s-4.052-.224-4.443-2.132.925-2.051,1.606-2.188.493-.361-1.464-1.769a53.69,53.69,0,0,0-4.584-2.864c-1.221.636-.2.771-.734,1.227m18.355,13.772c-1.416.273-2.589,1.684-3.415,2.909a22.145,22.145,0,0,1-3.516,3.908c-1.027.818-.733,1.049.927,1.642s4.588-1.049,5.418-1.1,1.465,1.23,4.1.908,6.637-.816,4.687-2.227a40.633,40.633,0,0,1-3.419-2.454,9.454,9.454,0,0,0-4.88-1.863s4.443-1.5,3.371-1.589-3.274-.138-3.274-.138M567.039,12.624c-2.555.918-1.66,1.365-3.322,2.686s-.541,1.678,3.03.816a22.333,22.333,0,0,0,6.051-2.271c2.292-1.051-1.95-2.6-5.759-1.231m5.66,6.413c-2.4,1.06-1.757,2.181-1.12,3.089s2.388-.547,2.874.458.637.584,2.883-.914,1.417-1.043.54-2.633-1.074-1.821-5.179,0m-13.336-.662c-1.535.731-1.535.648-.076,1.332s5.018,1.226,6.847.03,1.69-.953-.622-1.293-4.433-.887-6.148-.069m-22.625,2.759a35.348,35.348,0,0,1,6.483-.1c1.9.206,1.2,1.843-2.311,2.218s.331.921,2.819.818.879-2.15,2.969-2.864,3.4-.274,5.89-1.16-1.426-1.738-4.32-1.672a57.194,57.194,0,0,1-6.3.069c-2.453-.169-4.432.935-6.956,1.364-5.2.886-.656,1.532,1.722,1.327m18.667.652c-2.093,0-7.137,1.159-2.891,1.567s3.92.683,5.675.034-.583-1.6-2.784-1.6m14.8.887c-2.98-.985-3.045-.582-5.349-.48s-3.22,1.536-1.716,2.146a6.041,6.041,0,0,0,3.767.176c1.243-.208,1.171-.579.366-.89s4.687-.374,2.933-.953m12.519-3.681c-2.286.282-2.418.683-2.636,1.429s.328.579,2.745.273a12.529,12.529,0,0,0,5.124-1.5c1.575-.853-.327-2.933-.327-3.31s-2.232,1.13-2.856,1.672.654,1.093-2.05,1.435M403.433,149.763c-1.152,3.178-3.052,4.647-.8,3.767s4.491-3.62,4.378-1.274-2.305,2.006-1.616,4.306.173,2.1,3.917,2.934.689.541,1.614,2.743,1.552,2.885.573,3.521-3.857-2.005-4.028-.881.4,1.956,1.093,3.521-.462,2.445-2.647,3.473-.29,1.664,1.381,1.567,5.872-.882,5.18.586-2.7-.244-4.14,2.2-6.743,4.548-3.979,4.4,2.364-.882,10.6-2.053,2.527-.1,7.941-1.764,3.686-2.105.693-1.612,1.96-2.939,1.267-6.113-2.645-.146-3.917-2.157-1.1-2.591,1.325-1.861,2.189-.486-2.479-3.469-1.783-2.4-3.914-4.893-5.755-2.2-5.755-2.2a7.32,7.32,0,0,0,2.472-2.737c.921-1.81,1.1-1.665,2.074-3.865s-.979-2-3.451-1.469-3.287.784-2.766-.194a10.149,10.149,0,0,1,2.016-2.6c1.152-1.223,1.377-1.858-.75-1.368a15.651,15.651,0,0,0-4.259,1.271c-2.764,1.272-.866,3.032-2.018,6.214m-5.816,7.484c-3.763,1.483-2.7,2.448-2.07,2.983s1.783-.49-1.729,1.518-3.569,4.2-1.727,4.646,1.612-1.076-.341,2.594-3.283,6.164.692,5.234,5.063-2.984,6.963-3.229,2.246-1.761,2.246-4.063-1.265-2.347.231-4.254,1.61-3.914-1.329-4.842-.573-1.518-2.935-.587m47.291,51.34c-.2.515.248,1.909-1.271,2.861s.734,1.822,1.221,2.73,1.122-3.09.975-5-.29-2.227-.925-.588m-.731,7.545c-2.481,1.175-2.633,2.044-2.933,3.91s2.005.361,1.417,2-.045,2.5,2.539.959,1.124-2.956,1.513-4.912.734-3.5-2.537-1.954m38.266,20.089c-2.181-.212-3.147,1.16.586,1.571s5.418.477,6.812.136.216-.069-1.616-1.294-3-.138-5.781-.412m20.791,1.16c-3.006-.648-2.192,3,.883,2.459s1.9.2,3.3-2.048-1.027.27-4.179-.411m-74.777-16.932c-2.443.313-2.633,1.14-.731,1.64s1.658-.09,2.732-.866-.923-.908-2-.773m-147.879-44.5a20.9,20.9,0,0,0-5.347,6.751c-2.122,3.817-1.9,3.411-3.953,5.523s-1.024,1.636,5.347,2.865,5.855,2.183,7.322,1.774,1.759.813,1.759,2.114,1.386.54,2.047-1.5-.661-5.729-1.973-7.841-1.616-2.118-3.663-1.571-1.394-.476-2.122-2.112-1.909-.341-.147-2.8,2.2-4.363.731-3.207M85.7,171.585c0,2.027,2.144,5.5,3.758,6.637s1.271.5.538-1.911-.146-2.409-.49-3.954-3.805-1.5-3.805-.772m10.691,11.093a18.792,18.792,0,0,0,3.949,3.772,13.889,13.889,0,0,0,5.176,2.362c2.344.683,3.367-.228,1.854-1.589s-.244-1.23-2.978-1.867-3.314-.406-4.686-1.271-4.246-2.364-3.315-1.407M36.871,160.062c-1.761-.4-2.453-.477-3.663.476s-1.536,1.775-.875,2.834.253.475,1.79-.579.811-1.2,2.749-1.676,1.537-1.126,1.537-1.126a2.109,2.109,0,0,1-1.537.071m-.622-2.349c-1.184.711-1.577,1.293-.257,1.02s1.133-1.02,1.976-.853,1.137-.167,1.137-.167a3.392,3.392,0,0,0-2.855,0M2.457,152.288c-1.61.786-3.134-.134-2.14.462a6.091,6.091,0,0,0,3.4,1.038c1.063-.119,1.761-.134,1.374-.646a1.661,1.661,0,0,1-.512-1.175c-.039-.716-.511-.459-2.124.322M542.827,374.453c-1.857,4.094-5.764,2.092-8.887,5.092s-2.636,2.092-.292,6.274-1.949,3.727-3.03,8.637,1.271,4,2.54,8.181,1.857,2.909,4.2,2.362a13.645,13.645,0,0,0,4-1.634,58.564,58.564,0,0,1,1.951-9c1.563-5.362,2.635-9.274,2.929-12.818s.586-6.09,1.372-5,.875,1.091.875-.637-.937-6.587-2.44-7.726c-2.64-2-1.368,2.183-3.22,6.271m2.736-279.644c-2.559.586-3.772,2.15-1.909,2.761s1.684.278,4.761-.816-.331-2.524-2.852-1.945m47.831-46.453c-.873-1.365-1.655.456-10.636,4.364s-8.887.544-17.281,7.181-6.541,5.815-7.03,9.821-2.44,2.269-3.222,5.905-5.073,3.822-2.929,6.821,4.976,4.726,9.466,6,5.762-.089,4.789-.548-4.394-5.819-3.711-11.909,2.929-5.181,4.884-7.456,7.026-8.181,10.348-10.183c3.225-1.945,11.813-4.663,16.14-6.148.122-.045.277-.038.357-.123,3.415-3.817-.292-2.362-1.174-3.727M569.187,89.218c-1.063.151-1.561.184.393,2.092s3.659,3.364,3.022.818-2.44-3.045-3.415-2.911m32.067-18.5c-1.426-.667-2.193-1.365-2.537-.275s1.612,2.546,3.514,2.912.391-2-.978-2.636M265.176,185.13c-2.17-1.087-4.29-1.954-5.707-1.954s.293,1.5,2.537,2.727,4.442-.136,3.171-.773m-5.17,9.139c.116-1.8-1.2,2.07.412,2.933s2.446,1.087,3.469.041.19-.385-1.223-.634-2.755-.84-2.658-2.34m639.567-62.64a11,11,0,0,1-4.612-.48,7.113,7.113,0,0,1-.949,3.138,2.008,2.008,0,0,0-.226,2.115s-2.632-1.159-4.167-1.706-2.93-.067-3.812-2.39-3.512-1.906-5.563-1.906-1.461-2.658-1.461-2.658l-1.245.065c-1.249.072-1.027,3.071-2.636,4.025s-6.667,1.571-6.667,1.571,3.222,2.317,3.886,4.224a18.407,18.407,0,0,0,1.9,3.751s-.3.887-4.178.134-3.657.753-7.832,2.453a58.013,58.013,0,0,0-10.1,5.255c-1.175.952-1.245.407-4.906-.478s-4.39,1.02-5.347,1.5-.582-2.181-.582-2.181a7.144,7.144,0,0,0-2.933.818c-16.69,8.478-5.18,8.031-5.707,9.744,0,.009-1.761,6.616-1.761,6.62-2.452,7.306-4.152,3.478-6.221,9.268-6.591,18.409-10.4-2.838-10.4-7.7,0-3-.657-6.884,1.249-7.774,16.381-7.629,1.535-1.059,16.913-11.589,4.982-3.41,2.268-5.455,3.366-6.408a6.627,6.627,0,0,1,2.859-1.231l-2.71-.272c-2.71-.269-2.785.343-4.91,2.661s-3.8,2.728-3.367.953.512-3.614-1.094-2.657-2.272.815-5.272,1.433a14.732,14.732,0,0,0-8.934,5.453c-2.71,3.411-1.171,3-.292,3.817s-4.324.612-6.808.412-1.178-.681.29-1.161-2.2-.886-5.42-1.567-1.977.547-3.877,1.293-1.831-.679-2.784-.884-5.2-.478-8.2-.821-2.784.2-3.588,1.228-6.371,5.935-8.787,8.729-5.418,3.41-8.128,6-3.148,2.452-.953,2.864,2.492.2,2.855,2.247,1.394,2.726,3.737,2.726,1.684.616,2.122-1.159-.586-3.814,1.394-2.249,3.586,2.728,4.171,4.978-.149,3.886-1.171,7.639-1.39,9.135-2.784,11.861-2.489,4.774-4.028,7.774-9.006,10.568-10.686,11.249-2.781.75-3.59-.75-1.391-1.23-3.3.477a9.425,9.425,0,0,0-3.512,5.453c-.734,2.73-2.347,2.73-4.03,4.774s-2.121,1.57-.879,3.888,3.293,4.773,3.516,7.02-1.027,5.524-1.828,6.959-4.613,2.112-4.542,1.43a53.834,53.834,0,0,0,0-6.068c-.147-1.976-1.612-1.976-1.1-2.591s2.639-1.634,1.1-3.071-2.637-.2-3.292-1.906.292-3.07-.071-3.681-1.468-1.294-3.737-1.5-2.785,2.043-3.3.063.225-2.179-.8-3-1.906-.274-4.536,1.976-3.154,1.774-5.349,2.727-2.2,1.5-1.684,2.253,2.343,4.021,3.879,4.363,2.639-.683,4.979-.683,2.784.341,2.2,1.226-2.2,1.777-5.051,4.638-1.982,2.321-1.027,3.481a20.223,20.223,0,0,1,3.367,4.841c1.027,2.246,0,3.063-.145,4.358a5.975,5.975,0,0,0,1.539,5.325c1.9,2.04.583,1.362.363,2.111s-3.441,6.611-4.9,9.546-1.469,3.2-6.222,6.544-6.885,3.683-9.448,4.156a31.8,31.8,0,0,0-6.077,1.777c-1.316.547-.808,1.636-.947,2.318-.154.683-1.394.067-1.178-.957s.078-1.773-.583-2.043a4.152,4.152,0,0,0-4.831.952c-2.124,2.048-4.69,2.183-5.569,4.778s-.727,1.706.225,2.793,5.563,5.524,6.66,7.907A15.385,15.385,0,0,1,696.906,301c.071,2.591-5.276,7.365-7.616,8.934s-2.859,3.067-2.492.61-1.023-3.884-2.706-5.726-6.809-3.341-7.765-3.548.367-1.7-.3-1.634-2.192-.341-1.973,2.047-1.535,1.636-1.9,4.024-.808,4.837.73,4.636,1.245,2.114,2.417,4.705.728,1.159,3.66,3.544,2.2,1.976,2.859,4.364.437,3.751,1.9,5.932,1.536,2.66-.882,1.43a13.853,13.853,0,0,1-5.347-4.227c-.953-1.5-1.532-5.321-2.121-7.225s-4.539-4.16-5.856-5.524-.515-2.453.146-5.592-.294-6.138-.516-8.044a55.792,55.792,0,0,0-2.49-9.071c-.732-1.805-.438-1.567-1.575,0s-2.008,2.524-3.11,2.524-2.706-.171-2.562-.888,1.245-3.441.917-4.465-1.358-4.3-2.894-5.455a11.761,11.761,0,0,1-4.284-5.453c-.988-2.692-1.245-1.91-3.148-.512s-6.264,1.567-8.349,1.738-.365,1.195-.875,2.218-2.965,2.351-7.906,7.5-5.688,5.317-6.969,5.864-2.079.374-2.038,2.485a31.439,31.439,0,0,1-.015,5.15,10.992,10.992,0,0,1-1.346,3.862,22.715,22.715,0,0,0-1.288,4.527c-.169,1.133-1.271,2.453-2.881,3.611s-1.609.953-2.343-.75-4.539-8.251-7.612-14.386-2.344-7.229-2.64-9-.35-12.416-.219-13.226c.078-.454-1.487,1.249-1.928,2.111s-.415,1.911-2.17,2.069-2.124.184-3.782-1.477-2.42-2.589-2.131-2.543a9.2,9.2,0,0,0,3.3-.727c1.1-.548.728-1.14.728-1.14s-1.191.136-2.611.207-.782-.319-2.659-1.069-2.3-.817-2.614-1.658-.778-2.025-1.049-2.662-.486-.681-.8-1.474-1.221.136-3.248.181-1.564.135-4,1.09-2.807.616-5.565.525-4.683-1.275-6.077-1.751-1.61-.274-3.659-.57-1.61-1.338-2.126-2.2-1.364-1.069-4.052-.862a8.554,8.554,0,0,1-4.29-.341c-1.513-.406-1.638-.953-2.907-2.228s-.853-.27-1.684-.934a7.06,7.06,0,0,1-2.317-3.337c-.661-1.774-.512-2.159-1.272-2.978s-.7-.614-3.077-.614-1.288.158-1.583.318a15.89,15.89,0,0,0-1.684,2.022c-.657.817.534,1.956,1.487,3.07s.122,1,1.638,2.682,1,1.523,2.073,3.864,1.757,2.931,2,3.637.467-.274.711-.912a10.422,10.422,0,0,0-.1-2.911,14.572,14.572,0,0,1,.877,2.64c.415,1.68.122,1.7.415,2.775s0,.927,1.831.927a18.214,18.214,0,0,0,4.979-.406c2.029-.477,2.9-2.317,3.853-2.865s.957-2.455,1.587-2.25.03,2.25.612,3.589.731.862,2.15,1.455,1.8.934,3.242,1.478.464.614,1.246,2.047.733.635,1.49,1.137.464.136-.074,1.841a5.741,5.741,0,0,1-1.9,3.112c-1.272,1.387-1.272.956-1.465.912s-.586-1.024-.586-1.024a10.707,10.707,0,0,0-.927,3.592c-.123,1.932.634,1.223-1.687,2.157s-3.711,1.32-4.608,2.092-.9,1.8-1.417,2.3-1.223.045-2.781.59a5.256,5.256,0,0,0-2.443,1.435c-1.316,1-.147.908-1.828,1.541s-4.735,2.115-6.274,2.276-1.219.566-1.609,1.134-.419.862-2.37,1.159a24.61,24.61,0,0,0-5.591,1.162c-1.2.588-2.952,1.909-4.219,1.658s-.927-.3-1.342-1.433a13.618,13.618,0,0,1-.831-3.818,17.878,17.878,0,0,0-1.931-6.5c-1.072-1.8-1.05-1.912-2.219-3.8s-1.954-3.477-2.977-4.2-1.536-.772-2.029-1.316-.2-2.41-.7-4-.856-3.136-1.612-4.024a19.623,19.623,0,0,1-2.978-3.791c-1.046-1.89-1.12-2.1-2.63-5s-2.057-3.274-3.054-5.226-.345-1.571-.709-2.731-1.319,1.887-2.073,2.479-1.146.3-1.757-1.433-1.126-3.247-1.588-2.565-.83,1.363-.2,3.207.934,1.448,1.761,3.2,3.1,6.142,4.024,7.957a12.614,12.614,0,0,1,1.418,3.683c.857,2.749,1.34,3.09,2.485,4.223s.957.547,1.468,2.411a23.129,23.129,0,0,1,.393,5.185c.071,1.133.7,1.726,2.073,2.861s.683.728,1.318,1.932a27.108,27.108,0,0,1,1.638,4.091,3.605,3.605,0,0,0,1.876,2.524,18.338,18.338,0,0,0,2.444.978c1.071.387.7.657,1.435,1.59s2.15,1.636,3.032,3.116.29,1.044.238,2.475-.51.773.125,1.523A18.922,18.922,0,0,0,533.255,308c1.857,1.23.372.367,2.028.322s2.005-.48,3.786-.865,4.074-1.046,6.27-1.568,4.342-.862,5.468-1.23,1.149.869.291,2.775-1.266,3.5-2,5.048-1,1.68-1.539,2.931-4.153,6.36-4.9,7.977a19.935,19.935,0,0,1-2.758,4.253c-1.1,1.338-4.542,3.769-6.151,5.066s-1.2,1.294-2.392,2.82-4.831,5.749-5.813,7.249a30.873,30.873,0,0,0-2.266,3.521c-.732,1.478-2.8,3.567-2.93,4.636s-1.29,1.206-.415,2.141,1.342,1.087,1.661,2.268-.979,2.524-.145,4.685.242.614,1.49,2.34,1.195,2.819,1.314,5.343a27.716,27.716,0,0,1-.145,6.657,30.908,30.908,0,0,1-1.487,4.184c-.56,1.474-3.637,2.479-5.446,3.27s-1.729.478-2.563,1.478-3.218,3.09-4.024,4.636-1.416,1.387-1.1,2.366,1,2.25,1.828,4.068.246,1.681.049,3.252-.171,1.319-.389,3.225-2.466,1.954-5.029,2.955-1.634.5-1.932,1.886a56.392,56.392,0,0,0-.218,5.749c-.1,1.638-.875.979-2.269,3s-1.951,2.98-3.441,5.411a8.881,8.881,0,0,1-3.248,3.614c-1.876,1.521-3.367,1.906-4.195,3.657s-1.783.593-5.81,1.887-1.1.663-4.928,1.091-5.2.732-7.227,1.091-1.761-.109-3-1.474-1.44-1.255-2-2.388-.149-1.411-.322-3.458a5.423,5.423,0,0,0-1.094-3.387,19.561,19.561,0,0,1-1.539-3.5,16.584,16.584,0,0,0-2.128-3.953c-.923-1.364-1.193-.93-2.047-1.818s-.879-1.662-1.076-2.911-.489-4.2-.9-7.32-.048-1.455-.541-2.771-1.072-2.909-1.9-4.658a25.329,25.329,0,0,0-1.806-3.458,20.97,20.97,0,0,1-1.954-3.746c-.8-1.891-.923-1.05-.972-1.778s.412-2.043.464-3.315.464-2.749.776-4.705-.434-1.932.393-3.274a21.4,21.4,0,0,0,2.224-4.091,7.254,7.254,0,0,0,.46-3.521c0-1.932-.2-1.771-.778-3.386s-.806-3.5-1.514-6.089a15.384,15.384,0,0,1-.785-3.5,24.278,24.278,0,0,0-1.072-4.612c-.486-1.362-.731-.817-1.8-1.7s-.367-.5-1.294-1.481-.756-1.294-1.66-2.362a13.124,13.124,0,0,1-1.761-2.318c-.728-1.2-.335-.476-.238-2.5s.679-5.887,1.049-8.115.441-2.112-.415-3.045-1.468-2.272-2.124-2.5-2.246.225-4.564.18-2.221-.566-3.218-1.729-2.325-2.771-2.788-3.2-1.269-.411-5.217-.116-1.565.367-4.2.776-3.659,1.793-5.684,2.5-2.611.521-6.174-.184-5.343.821-7.152,1.593a3.452,3.452,0,0,1-4-.5,25.8,25.8,0,0,0-4.127-2.66c-2.021-1-1.561-1.544-3.56-2.523s-1.346-1.024-3-2.591-1.779-3.158-2.929-4.8-2.128-3.931-3.663-5.66-3.049-5.2-3.805-6.248-1.338-1.139-1.319-1.638,1.49-3.43,2.1-4.954.78-1.32,1.046-2.273-.363-3.7-.949-5.2-1.245-4.661-1.706-6.138.238-1.5.8-2.338a50.76,50.76,0,0,0,3.293-5.181c1.39-2.6,2.172-3.866,2.9-5.074s2.414-4.906,3.518-5.907a34.98,34.98,0,0,1,5.1-3.615c1.193-.61,2.172-.952,2.369-1.5s.7-5.043,1.05-6.929-.12-2.933,1.245-3.661,3.564-2.092,4.713-2.73,1.316-1.59,1.9-2.974.834-3.136,1.713-3.708.634.251,1.779,1.024a4.693,4.693,0,0,0,1.88.956c.538.138,1.024-.434,2.369-.454a3.326,3.326,0,0,1,2.292.592c.8.428.363.432,2.661-.979a36.4,36.4,0,0,1,7.127-3.386,31.06,31.06,0,0,1,6.441-1.885c1.391-.162.683.019,2.247.637s1.636.884,1.951.428,1.342-1.729,2-1.681,1.416.319,3.1.615a4.258,4.258,0,0,0,3.077-.229c.679-.363,1.558-1.091,1.729-1.091a28.711,28.711,0,0,1,2.784.934c1.171.431,1.195.5.953.791a6.136,6.136,0,0,0-1.146,1.887c-.564,1.275-.3.592.242,1.934s.927,1.272.681,2.251-1.342,1.885-2.146,2.838-.609,1.113,1.368,2.23a27.925,27.925,0,0,0,3.734,1.929c2.22,1,2.317.636,4.906,1.409s2.269.862,3.169,1.912.953,2.043,2.515,2.587,3.222.547,4.126,1.113a8.063,8.063,0,0,0,2.859,1.616c1.217.225,1.213.387,1.8-.5s1.072-1.681.856-2.137-.882-1.159-.737-1.59a30.565,30.565,0,0,1,1.491-2.678c.322-.525,1.126-.663,3.054-.754s3.268-.363,3.586.773.246.614,1.731,1.23,1.64.612,2.882,1.091.612,1.155,1.245,1.109a7.665,7.665,0,0,1,2.829.207,21.145,21.145,0,0,0,5.588,1.455,5.719,5.719,0,0,0,3.493-.754c.341-.154,1.95-2.131,2.907-.769s2.192,1.387,4.583,1.249,2.418-.5,2.956-1.113a16.6,16.6,0,0,0,2.442-4.522c.46-1.59,1.729-5.067,2.07-6.638a9.35,9.35,0,0,0-.145-3.724,5.164,5.164,0,0,1,.467-2.617c.363-1.042-1.149-.409-1.761-.2s-.778-.318-1.338-.48-1.149-.3-1.565.754-.222,1.567-2.466,1.455-1.828-.251-2.563-1.049a6.338,6.338,0,0,0-2.98-1.294c-1-.3-1.094-.251-1.168.385s-.1,1.069-.827,1.32a6.376,6.376,0,0,1-3.786-.7,9.142,9.142,0,0,1-3.173-2.321c-1.368-1.338-1.169-1.338-1.733-3.406a9.042,9.042,0,0,1-.315-4.455c.239-.615.635-.8-.415-.477s-1.761.5-1.053-1.068,1.365-1.638,2.1-1.844a19.59,19.59,0,0,1,3.244-.315,7.94,7.94,0,0,0,2.952-1c.489-.206,1.493-.547.979-.681s-2.051-.3-1.784-.728.442-.409,1.268-.5,2.124-.138,3.226-.2,1.753.136,2.124-.524a5.343,5.343,0,0,1,1.68-2.161c.857-.521,1.783-.251,4.03-.341s1.9.454,2.633.979,1.221.27,2.176.454.365.75,1.1,1.046,2.075.592,3.707,1.115.564.3,2.563.3a13.828,13.828,0,0,0,3.518-.251,7.085,7.085,0,0,0,3.367-1.662c1.124-.793.341-2.524-.071-3.862s-2.176-2.2-2.981-2.818-2.537-2.572-3.464-3.363A15.875,15.875,0,0,0,517,202.86c-1.024-.573-2.855-1.5-3.026-2.252s.392-.769,1.9-1.134,1.028-.683,1.314-1.481.419-.772,1.662-1.226-1.437-1.411-1.806-1.928.83-.367,2.077-.663a1.687,1.687,0,0,0,1.513-1.411c.173-.521.119-.772-1.342-.746a28.316,28.316,0,0,0-5.785,1.294c-2.466.656-1.338.681-2.829,1.841s-1.587.656-1.391,1.293.291,1.249,1.8,2.047.876.818,1.3.934,1.439.272.975.41-.882.859-1.565.859-.978.706-2.146,1.365a6.213,6.213,0,0,1-2.537.888c-.853.134-1.464-.138-1.345-1.593s-.438-.473-1.342-.815a3.378,3.378,0,0,1-1.246-.731,10.293,10.293,0,0,0,1.809-.886,3.493,3.493,0,0,0,1.757-2.021c.438-1.115-.978-.5-2-.637s-.734-.229-1.731-.363a1.879,1.879,0,0,1-1.391-.931,3.034,3.034,0,0,0,1.316.091c.853-.091.663-.319.976-.548s.566-.431.318-.431-1.294.113-2,.067a7.541,7.541,0,0,0-2.15,0c-1.027.158-.612.544-1.342,1.02a2.614,2.614,0,0,0-1.146,1.346c-.389.7-.515.588-.782,1.043a6.331,6.331,0,0,0-.244,2.365,2.3,2.3,0,0,1-.659,1.658c-.464.637-.464.365-1.246.747s-.268.663-.363,1.435-.367,1.069-.441,2.07-.464,1.042-1.072,1.747-.953.7-1,1.433a8.674,8.674,0,0,0,0,2.453c.171,1.411.56,1.046,1.66,2.479s1.684.888,1.292,1.612-.317.458-1.662.3-1.558.045-2.533.979-1.178,1.455-1.687,1.8-.34-.681-.534-1.161-2.442-.635-3.981-1.091a18.584,18.584,0,0,0-2.344-.728,4.364,4.364,0,0,0-2.6.8c-1.609.886-1.245,1.4-1.133,2.556s1.387,1.4,1.024,4.124,1.355,1.468,2.086,3.138.074,1.532-.363,1.739-.879,1.634-1.21,3,.035,1.535-.367,1.468-.875.238-1.645-.888-1.391-.065-1.5-.715-1.062-1.738-.694-3.238.952-1.64-.367-2.421-.985-.888-1.61-2.492a9,9,0,0,0-1.973-3.373c-1.213-1.465-1.1-1.056-.773-2.524s.587-3.374-.147-4.4a24.47,24.47,0,0,0-6.261-5.182c-2.488-1.327-3-.306-4.1-2.421s-1.6-4.33-3.438-5.627-.914-1.4-2.671-.746-1.8.921-1.649,1.429a4.372,4.372,0,0,1,.29,2.594c-.257,1.394-.621.953,1.21,2.042s1.063.856,1.977,2.864a10.124,10.124,0,0,0,1.8,3.207,4.18,4.18,0,0,0,2.819,1.943c1.828.409,1.536-.1,2.009.341s-1.281.612-.95.817a16.6,16.6,0,0,0,2.271,1.739c1.537.953,3.115,1.943,3.517,2.693s1.755,3.577-.221,1.5-2.012-1.12-2.563.309.508,2.524.441,3.579-.992.65-1.616,1.5-.949,1.874-1.682,2.421-.512-.612-.911-.612-.551.509-1.063,1.5,0,1.4.216,2.73.59,1.433-.839,1.364-1.1-1.4-2.414-2.285-2.087-.579-3.187-1.265.476-.85,3.222-1.192,3.074-.61,3.918-1.258.547-.821,1.464-2.114,0-1.809-.625-3.38a5.727,5.727,0,0,0-2.2-2.589,22.072,22.072,0,0,1-2.121-2.112c-.808-.888-1.651-1.023-3.042-1.364s-1.133-1.6-1.9-1.977-1.539-1.468-3.3-3.1-1.094-2.865-1.9-4.3-1.61-2.523-3.371-2.523-3.074,1.226-4.831,2.929-1.391,2.524-3.442,1.23-2.777-1.159-4.249.067-1.753,2.457-1.753,4.91-1.757,1.433-3.148,2.112-2.637,2.388-4.757,6.412.145,2.112-.3,3.476.147,2.457-1.828,4.227-1.1-.2-2.269,1.23a5.723,5.723,0,0,1-5.566,2.25c-2.784-.341-1.978.75-3.737,1.159s-2.706,1.024-2.269-.956.075-1.7-3.292-1.568-4.542,1.024-4.249.547a11.791,11.791,0,0,0,.811-3.205c.367-1.909.875-2.523.367-2.523s-1.616.277-.808-3.136,1.1-4.024.731-6,.142-4.639-.29-5.8.875-2.315.29-2.933-1.245-1.429-.8-1.429a30.743,30.743,0,0,1,4.612.476c2.347.409,4.757-.34,6.151-.206s4.32.75,7.246,1.23,2.855-.412,2.565-4.707.219-6.27-.663-7.158-1.824-.817-2.777-1.976-.222-2.865-2.269-3.481-4.327-.134-3.222-.543,1.535-.547.367-1.433-1.471-1.839-.59-1.98,3.367-.136,3.367-.136.222,1.23,1.541.683,3-1.087,2.636-1.976-1.027-1.977-.811-1.977a4.44,4.44,0,0,0,3.514,1.227c2.785,0,2.563-.409,2.347-1.568s1.832-1.091,3.222-2.047-.515-2.044-.219-2.929,1.9-1.437,4.757-1.636,2.34-.685,2.051-1.024.074-1.777.29-3.614-.216-2.457,1.249-3.34,1.023-.546,4.027-.822,1.169-.953,1.68-1.087,4.1-1.023,4.761-1.3.59-.2,0-1.5-1.39-2.043-2.047-8.043-.515-6,3.145-7.09,2.859-.751,2.563,2.591-1.9,3.34-2.269,5.793-.071,3.953,1.465,6.548,1.393,1.293,4.686,1.293,2.563.818,4.757,1.568,1.465-1.362,3.593-2.114,1.68.478,6.659-.272c1.9-.286,2.546-.353,2.695-.366-.151.009-.7.017-.132-.317,1.171-.683,1.464-1.909,3.151-2.113s2.852.477,2.777-2.117-1.023-2.179-.731-4.158.363-1.087.512-2.658-.216-1.84,1.906-2.384.659,1.907,3.218,2.452,2.2.956,2.64-1.02,1.831-4.57.582-4.431-1.535-.07-2.781-1.91-1.973-2.251-1.169-2.251a42.735,42.735,0,0,1,7.391-.614c3.879.134,4.983.478,5.2.067s-.656-.813.661-1.634,5.639.409,4.98-.34-4.465-1.775-7.026-1.363-8.787,1.159-9.74,1.089a6.8,6.8,0,0,1-3.149-1.224c-.437-.48-1.831-.82-1.831-3.071s.807-3.136-.512-5.317,2.414-4.024,4.979-6.341,1.906-4.23,3.438-4.365,2.13-.953,1.393-1.706-3.441-3.34-4.76-3.611-3.293-1.773-5.344,1.773.145,3.886.515,5.728-2.858,3.205-5.274,4.907-3.291,1.3-4.028,5.66-1.465,4.5,1.246,6,3.221,2.25,1.98,3.544-3.883,1.231-5.5,4.3-.949,4.564-1.61,5.93-2.706,1.974-3.3,3.34-.582,3.953-3.074,3.547-1.1-3.752-2.2-5.459-1.977-3.133-3.293-5.247-.29-4.158-1.539-5.252a6.084,6.084,0,0,1-1.539-3.27l-.437,1.024c-.438,1.024-.22,1.634-2.708,4.705a7.4,7.4,0,0,1-8.057,2.521c-1.828-.751-1.536-2.521-1.536-4.775a67.43,67.43,0,0,1-.074-8.794c.367-3.546,1.394-3.273,5.276-5.591s3.95-2.183,4.9-3.683,3.737-3.613,5.343-4.978,4.4-6.544,5.859-10.228,4.171-5.931,6.808-9.885,7.322-7.431,13.326-9.951,4.983-2.8,6.367-4.776,1.983-.818,4.324-1.3,1.976,0-.367,2.317-3.364,4.775-1.391,2.933,3.512-4.024,6.589-3.886,1.832,0,4.835,1.365,3.516,1.5,1.835,2.587-4.545.822-4.545.822a4.733,4.733,0,0,0,3.734,2.591c2.784.341,4.32-2.183,6.151-1.23s2.343,1.634-.147,1.431-3.22,1.362-.145,2.453a25.652,25.652,0,0,0,7.394,1.774c4.026.548,5.788,3.476,8.857,4.774s6.664.2,5.643,3,.8,5.519-4.541,6.817-5.2-.412-9.663-1.778a78.6,78.6,0,0,1-7.613-2.726,28.773,28.773,0,0,0,3.22,3.48c2.047,1.906,2.269,3.679,2.047,7.161s-1.171,4.431,2.347,6.133,3,1.228,4.1.957,2.929-.614,2.488-1.161a5.229,5.229,0,0,0-1.976-2.112,1.3,1.3,0,0,1-.071-2.457c1.168-.614,2.265.544,4.831.409s0-.953,1.243-2.247,1.324-3.477,4.324-4.642,6.218.547,7.029-.746,1.685-2.794,0-4.774-3-2.656-1.978-3.615,3.076-3.474,4.029-2.044,3.367,3,.294,2.728-.957,4.571,1.828,4.3,2.561-1.159,4.835-2.251,6.734-4.7,9.881-5.8,3.808-.82,5.051-.272,1.247,1.568,4.69.884,4.465-1.5,7.687-2.046-.219,1.161,1.242,1.634,1.612.89,2.714.142,4.612-1.981,3-3.205-2.788-2.049-2.788-2.049a4.384,4.384,0,0,1,4.249-2.384c3.075.2,7.758,3.068,10.765,5.115a43.231,43.231,0,0,1,6.663,6.4s1.314-2.246.216-6-3.879-2.863-3.879-6.407-2.565-2.593-1.683-5.113,3.367-3.482,4.03-6.688,1.243-5.857,3.512-5.857,7.175.68,7.175.68a20.871,20.871,0,0,1-1.832,7.3c-1.828,4.363.953,4.842.516,10.161s-.516,6,.731,7.224,3.592,2.73,2.71,5.044-1.32,3.755-4.614,5.048-7.467.547-5.935,1.571a14.621,14.621,0,0,0,5.714,2.246c2.2.341,1.1-.133,2.855-1.566s5.713-4.3,5.565-5.662-2.269-3.478-.8-4.5,2.047-2.59,4.319-1.3,4.469,6.139,4.469,5.934-.441-4.775-3.148-7.5-7.175-.142-7.175-2.523,1.243-5.663.949-8.255-1.312-5.182.367-7.43a8.026,8.026,0,0,0,1.759-4.024,9.634,9.634,0,0,1,.145,4.771c-.583,2.658.3,4.23,1.537,4.23s6.808.071,3.808-.818-3.878-1.706-.878-3.34,2.855-.548,7.246.476,5.417,1.773,6.884,1.705,1.247-.206.731-1.5a5.835,5.835,0,0,0-2.561-3.071c-1.394-.884-2.34.206-2.781-1.159s-1.243-4.773-1.612-6.068,1.1-.272,3.441-.272,8.714-.343,13.622-.477.074-5.251-.3-8.866,9.081-3.748,13.689-4.427,9.96-.477,18.6-2.524,3.077-1.706,4.32-4.158,3.371-2.864,5.932-2.864,4.91.475,3.957.816-3.808,1.77.657,2.73,3.3.882.953,1.7-.365,2.317,4.171,2.317,1.831-.41,1.1-1.91.662-.954,4.4-.34,5.2,1.228,7.249,3.134,2.414,1.437,3.145,4.1-.07,2.246-3.218,4.7-5.051,2.457-9.592,5.32-3.445,4.363-5.93,6.272-1.831,1.363,3.438,0,8.127-2.25,10.841-1.977,4.024,1.293,6.075,1.293-.145.341,6.3.341,5.485,0,3.146,1.843.441,2.387,3.3,2.387a65.167,65.167,0,0,0,9-.274c2.643-.407.371-2.384,3.518-2.523s4.173-.409,7.54-.409,2.343,1.365,3.514,2.591,2.781,2.044,1.684,4.5-1.684,2.521-1.027,5.861,2.347,3.818,4.4,4.433,2.047-3,4.026-4.226,2.417,2.452,4.686,1.907a13.484,13.484,0,0,1,6.808.339,11.062,11.062,0,0,0,6.444.345c2.781-.614,1.9-1.7.953-3.41s-1.027-1.571.731-3.34,2.93-.89,8.64.612,3.882,1.5,7.1,2.387,2.2.684,7.105,2.933,3.955,4.91,6.222,6.337,2.417,0,6.959-.4,4.464.542,9.444,1.84,3.655,2.93,3.655,4.364-1.386,2.525,1.687,3.2,4.32,1.293,6.956.614.292.679,6.151.746,3.882-.679,5.64.548,2.194,3.683,5.049,3.411,2.636-.2,1.465-2.728-1.906-2.936-.219-2.864,5.124.816,11.491,1.84,6.589,2.184,11.794,5.455,6.657,3.545,10.468,6.477a8.9,8.9,0,0,1,1.77,1.522,9.188,9.188,0,0,1,1.967.8c4.094,1.907,3.367,1.3,6.881,3a40.069,40.069,0,0,1,6.509,4.091s.225.341-2.411.615m-341.614,69.3s-.389.522,1.661-1.116-.957-.069-2.128-.41-1.539-.888-1.169-2.384-.147-1.5-1.394-3.48c0,0-.659-.406-2.047.409s-2.2-.815-3.882-.2-3.514.341-4.541,2.865-2.2.884-2.56,2.929-3.518,3.136-3.518,3.136,1.249,1.23,2.2,2.388.292.411,1.243,4.23,1.615,3.477,2.933,4.02a28.973,28.973,0,0,1,3.366,1.845s-1.243-.754-1.243,1.293-1.98,3.477-1.76,6.477-2.708,5.794-.363,6.071,1.609,1.294,4.171,1.976a24.107,24.107,0,0,0,7.763,1.16c3.73,0,1.681-1.433,1.169-3.548a28.91,28.91,0,0,1-.95-5.793c-.147-2.318-1.027-1.707-1.612-3.136s.293-2.254,2.048-2.254,1.982-.067,1.027-1.634-.361-2.183-1.543-2.865c-1.165-.683-1.68,2.254-1.68,2.254s-.731-.683-.438-3.548.512-1.5-.363-2.047-1.4.136-2.565-1.77-.145-1.5-1.536-3.818-.663-1.094.875-1.094.731-.341,0-1.087-1.241-1.912.731-1.774,4.542.544,5.493.614.614.3.614.3M284.8,95.872c-.676,1.165,1.146,2.658,2.466,2.194s1.751.053,2.5-.55.821-1.479-.071-2.344-.53-1.372-.679-1.465c-1.684-1.031-3.538,1-4.217,2.165M646.75,20.694c-1.98.067-4.178.14-2.343.751s1.1,3.681,4.61,1.974,2.784-1.84,5.2-2.864,1.018-.53-1.9-1.293c-1.831-.478-3.588,1.364-5.565,1.431" transform="translate(0 0)" fill="#e8e8e8"/>
    </g>
  </g>
</svg>
